<?xml version="1.0" encoding="UTF-8" standalone="no"?>
<!DOCTYPE svg PUBLIC "-//W3C//DTD SVG 1.1//EN"
 "http://www.w3.org/Graphics/SVG/1.1/DTD/svg11.dtd">
<!-- Generated by graphviz version 12.2.1 (20250203.1708)
 -->
<!-- Title: ROS2TopLevel Pages: 1 -->
<svg width="1521pt" height="1128pt"
 viewBox="0.00 0.00 1521.22 1127.66" xmlns="http://www.w3.org/2000/svg" xmlns:xlink="http://www.w3.org/1999/xlink">
<g id="graph0" class="graph" transform="scale(1 1) rotate(0) translate(4 1123.66)">
<title>ROS2TopLevel</title>
<polygon fill="white" stroke="none" points="-4,4 -4,-1123.66 1517.22,-1123.66 1517.22,4 -4,4"/>
<g id="clust1" class="cluster">
<title>cluster_perception</title>
<polygon fill="lightgrey" stroke="black" points="1396.72,-469.05 1396.72,-553.05 1505.22,-553.05 1505.22,-469.05 1396.72,-469.05"/>
<text text-anchor="middle" x="1450.97" y="-535.75" font-family="Times,serif" font-size="14.00">perception</text>
</g>
<!-- perception -->
<g id="node1" class="node">
<title>perception</title>
<polygon fill="lightblue" stroke="black" points="1497.22,-519.3 1404.72,-519.3 1404.72,-476.8 1497.22,-476.8 1497.22,-519.3"/>
<text text-anchor="middle" x="1450.97" y="-502" font-family="Times,serif" font-size="14.00">perception</text>
<text text-anchor="middle" x="1450.97" y="-484.75" font-family="Times,serif" font-size="14.00">(1 node)</text>
</g>
<!-- /autodrive_bridge -->
<g id="node2" class="node">
<title>/autodrive_bridge</title>
<polygon fill="lightyellow" stroke="black" points="757.07,-597.3 585.82,-597.3 585.82,-554.8 757.07,-554.8 757.07,-597.3"/>
<text text-anchor="middle" x="671.45" y="-580" font-family="Times,serif" font-size="14.00">/autodrive_bridge</text>
<text text-anchor="middle" x="671.45" y="-562.75" font-family="Times,serif" font-size="14.00">(autodrive_roboracer)</text>
</g>
<!-- /autodrive_bridge__tf_broadcaster -->
<g id="node3" class="node">
<title>/autodrive_bridge__tf_broadcaster</title>
<ellipse fill="lightsalmon" stroke="black" cx="1065.15" cy="-1106.05" rx="61.7" ry="13.61"/>
<text text-anchor="middle" x="1065.15" y="-1103.13" font-family="Times,serif" font-size="9.00">TF Broadcaster</text>
</g>
<!-- /autodrive_bridge&#45;&gt;/autodrive_bridge__tf_broadcaster -->
<g id="edge1" class="edge">
<title>/autodrive_bridge&#45;&gt;/autodrive_bridge__tf_broadcaster</title>
<path fill="none" stroke="grey" stroke-width="0.5" d="M672.36,-597.44C673.07,-665.12 682.92,-878.4 775.07,-1019.05 823.76,-1093.36 934.7,-1107.41 1004.11,-1108.42"/>
</g>
<!-- /autodrive/roboracer_1/throttle -->
<g id="node4" class="node">
<title>/autodrive/roboracer_1/throttle</title>
<ellipse fill="lightgreen" stroke="black" cx="1065.15" cy="-1044.05" rx="168.29" ry="30.05"/>
<text text-anchor="middle" x="1065.15" y="-1048" font-family="Times,serif" font-size="14.00">/autodrive/roboracer_1/throttle</text>
<text text-anchor="middle" x="1065.15" y="-1030.75" font-family="Times,serif" font-size="14.00">[std_msgs/msg/Float32]</text>
</g>
<!-- /autodrive_bridge&#45;&gt;/autodrive/roboracer_1/throttle -->
<g id="edge2" class="edge">
<title>/autodrive_bridge&#45;&gt;/autodrive/roboracer_1/throttle</title>
<path fill="none" stroke="black" d="M673.79,-597.76C678.41,-657.48 697.97,-827.33 775.07,-940.05 805.86,-985.06 858.15,-1010.7 909.87,-1025.27"/>
<polygon fill="black" stroke="black" points="908.86,-1028.63 919.42,-1027.83 910.67,-1021.86 908.86,-1028.63"/>
<text text-anchor="middle" x="809.2" y="-1002.14" font-family="Times,serif" font-size="14.00">publishes</text>
</g>
<!-- /autodrive/roboracer_1/steering -->
<g id="node5" class="node">
<title>/autodrive/roboracer_1/steering</title>
<ellipse fill="lightgreen" stroke="black" cx="1065.15" cy="-966.05" rx="171.47" ry="30.05"/>
<text text-anchor="middle" x="1065.15" y="-970" font-family="Times,serif" font-size="14.00">/autodrive/roboracer_1/steering</text>
<text text-anchor="middle" x="1065.15" y="-952.75" font-family="Times,serif" font-size="14.00">[std_msgs/msg/Float32]</text>
</g>
<!-- /autodrive_bridge&#45;&gt;/autodrive/roboracer_1/steering -->
<g id="edge3" class="edge">
<title>/autodrive_bridge&#45;&gt;/autodrive/roboracer_1/steering</title>
<path fill="none" stroke="black" d="M675.91,-597.67C684.85,-648.07 712.5,-775.53 775.07,-861.05 807.52,-905.41 860.61,-931.07 912.49,-945.9"/>
<polygon fill="black" stroke="black" points="911.51,-949.26 922.08,-948.5 913.35,-942.5 911.51,-949.26"/>
<text text-anchor="middle" x="809.2" y="-922.31" font-family="Times,serif" font-size="14.00">publishes</text>
</g>
<!-- /autodrive/roboracer_1/left_encoder -->
<g id="node6" class="node">
<title>/autodrive/roboracer_1/left_encoder</title>
<ellipse fill="lightgreen" stroke="black" cx="1065.15" cy="-888.05" rx="191.63" ry="30.05"/>
<text text-anchor="middle" x="1065.15" y="-892" font-family="Times,serif" font-size="14.00">/autodrive/roboracer_1/left_encoder</text>
<text text-anchor="middle" x="1065.15" y="-874.75" font-family="Times,serif" font-size="14.00">[sensor_msgs/msg/JointState]</text>
</g>
<!-- /autodrive_bridge&#45;&gt;/autodrive/roboracer_1/left_encoder -->
<g id="edge4" class="edge">
<title>/autodrive_bridge&#45;&gt;/autodrive/roboracer_1/left_encoder</title>
<path fill="none" stroke="black" d="M679.58,-597.73C693.39,-637.4 726.72,-723.01 775.07,-782.05 805.83,-819.6 817.11,-829.03 861.32,-849.05 875.72,-855.57 891.17,-861 906.89,-865.53"/>
<polygon fill="black" stroke="black" points="905.78,-868.85 916.35,-868.12 907.63,-862.1 905.78,-868.85"/>
<text text-anchor="middle" x="809.2" y="-844.05" font-family="Times,serif" font-size="14.00">publishes</text>
</g>
<!-- /autodrive/roboracer_1/right_encoder -->
<g id="node7" class="node">
<title>/autodrive/roboracer_1/right_encoder</title>
<ellipse fill="lightgreen" stroke="black" cx="1065.15" cy="-810.05" rx="199.58" ry="30.05"/>
<text text-anchor="middle" x="1065.15" y="-814" font-family="Times,serif" font-size="14.00">/autodrive/roboracer_1/right_encoder</text>
<text text-anchor="middle" x="1065.15" y="-796.75" font-family="Times,serif" font-size="14.00">[sensor_msgs/msg/JointState]</text>
</g>
<!-- /autodrive_bridge&#45;&gt;/autodrive/roboracer_1/right_encoder -->
<g id="edge5" class="edge">
<title>/autodrive_bridge&#45;&gt;/autodrive/roboracer_1/right_encoder</title>
<path fill="none" stroke="black" d="M685.23,-597.59C711.77,-639.99 777.46,-733.45 861.32,-771.05 875.08,-777.22 889.79,-782.42 904.77,-786.79"/>
<polygon fill="black" stroke="black" points="903.68,-790.12 914.25,-789.43 905.55,-783.38 903.68,-790.12"/>
<text text-anchor="middle" x="809.2" y="-765.13" font-family="Times,serif" font-size="14.00">publishes</text>
</g>
<!-- /autodrive/roboracer_1/ips -->
<g id="node8" class="node">
<title>/autodrive/roboracer_1/ips</title>
<ellipse fill="lightgreen" stroke="black" cx="1065.15" cy="-732.05" rx="151.85" ry="30.05"/>
<text text-anchor="middle" x="1065.15" y="-736" font-family="Times,serif" font-size="14.00">/autodrive/roboracer_1/ips</text>
<text text-anchor="middle" x="1065.15" y="-718.75" font-family="Times,serif" font-size="14.00">[geometry_msgs/msg/Point]</text>
</g>
<!-- /autodrive_bridge&#45;&gt;/autodrive/roboracer_1/ips -->
<g id="edge6" class="edge">
<title>/autodrive_bridge&#45;&gt;/autodrive/roboracer_1/ips</title>
<path fill="none" stroke="black" d="M700.15,-597.78C735.51,-624.4 799.52,-668.92 861.32,-693.05 882.13,-701.18 904.83,-707.66 927.26,-712.81"/>
<polygon fill="black" stroke="black" points="926.24,-716.17 936.76,-714.91 927.75,-709.34 926.24,-716.17"/>
<text text-anchor="middle" x="809.2" y="-687.58" font-family="Times,serif" font-size="14.00">publishes</text>
</g>
<!-- /autodrive/roboracer_1/imu -->
<g id="node9" class="node">
<title>/autodrive/roboracer_1/imu</title>
<ellipse fill="lightgreen" stroke="black" cx="1065.15" cy="-654.05" rx="148.67" ry="30.05"/>
<text text-anchor="middle" x="1065.15" y="-658" font-family="Times,serif" font-size="14.00">/autodrive/roboracer_1/imu</text>
<text text-anchor="middle" x="1065.15" y="-640.75" font-family="Times,serif" font-size="14.00">[sensor_msgs/msg/Imu]</text>
</g>
<!-- /autodrive_bridge&#45;&gt;/autodrive/roboracer_1/imu -->
<g id="edge7" class="edge">
<title>/autodrive_bridge&#45;&gt;/autodrive/roboracer_1/imu</title>
<path fill="none" stroke="black" d="M757.49,-593.87C789.96,-600.6 827.34,-608.28 861.32,-615.05 888.14,-620.4 916.97,-626.02 944.24,-631.28"/>
<polygon fill="black" stroke="black" points="943.44,-634.69 953.93,-633.14 944.77,-627.81 943.44,-634.69"/>
<text text-anchor="middle" x="809.2" y="-614.89" font-family="Times,serif" font-size="14.00">publishes</text>
</g>
<!-- /autodrive/roboracer_1/odom -->
<g id="node10" class="node">
<title>/autodrive/roboracer_1/odom</title>
<ellipse fill="lightgreen" stroke="black" cx="1065.15" cy="-576.05" rx="157.15" ry="30.05"/>
<text text-anchor="middle" x="1065.15" y="-580" font-family="Times,serif" font-size="14.00">/autodrive/roboracer_1/odom</text>
<text text-anchor="middle" x="1065.15" y="-562.75" font-family="Times,serif" font-size="14.00">[nav_msgs/msg/Odometry]</text>
</g>
<!-- /autodrive_bridge&#45;&gt;/autodrive/roboracer_1/odom -->
<g id="edge8" class="edge">
<title>/autodrive_bridge&#45;&gt;/autodrive/roboracer_1/odom</title>
<path fill="none" stroke="black" d="M757.44,-576.05C798.16,-576.05 848.42,-576.05 896.39,-576.05"/>
<polygon fill="black" stroke="black" points="896.36,-579.55 906.36,-576.05 896.36,-572.55 896.36,-579.55"/>
<text text-anchor="middle" x="809.2" y="-580" font-family="Times,serif" font-size="14.00">publishes</text>
</g>
<!-- /autodrive/roboracer_1/lidar -->
<g id="node11" class="node">
<title>/autodrive/roboracer_1/lidar</title>
<ellipse fill="lightgreen" stroke="black" cx="1065.15" cy="-498.05" rx="163.52" ry="30.05"/>
<text text-anchor="middle" x="1065.15" y="-502" font-family="Times,serif" font-size="14.00">/autodrive/roboracer_1/lidar</text>
<text text-anchor="middle" x="1065.15" y="-484.75" font-family="Times,serif" font-size="14.00">[sensor_msgs/msg/LaserScan]</text>
</g>
<!-- /autodrive_bridge&#45;&gt;/autodrive/roboracer_1/lidar -->
<g id="edge9" class="edge">
<title>/autodrive_bridge&#45;&gt;/autodrive/roboracer_1/lidar</title>
<path fill="none" stroke="black" d="M757.57,-558.42C763.49,-557.19 769.37,-555.98 775.07,-554.8 813.4,-546.89 822.94,-544.69 861.32,-537.05 886.29,-532.08 913.01,-526.87 938.59,-521.93"/>
<polygon fill="black" stroke="black" points="939.21,-525.38 948.37,-520.05 937.89,-518.5 939.21,-525.38"/>
<text text-anchor="middle" x="809.2" y="-558.75" font-family="Times,serif" font-size="14.00">publishes</text>
</g>
<!-- /autodrive/roboracer_1/front_camera -->
<g id="node12" class="node">
<title>/autodrive/roboracer_1/front_camera</title>
<ellipse fill="lightgreen" stroke="black" cx="1065.15" cy="-420.05" rx="196.4" ry="30.05"/>
<text text-anchor="middle" x="1065.15" y="-424" font-family="Times,serif" font-size="14.00">/autodrive/roboracer_1/front_camera</text>
<text text-anchor="middle" x="1065.15" y="-406.75" font-family="Times,serif" font-size="14.00">[sensor_msgs/msg/Image]</text>
</g>
<!-- /autodrive_bridge&#45;&gt;/autodrive/roboracer_1/front_camera -->
<g id="edge11" class="edge">
<title>/autodrive_bridge&#45;&gt;/autodrive/roboracer_1/front_camera</title>
<path fill="none" stroke="black" d="M700.15,-554.32C735.51,-527.7 799.52,-483.18 861.32,-459.05 876.8,-453.01 893.33,-447.87 910.01,-443.52"/>
<polygon fill="black" stroke="black" points="910.67,-446.96 919.52,-441.13 908.96,-440.17 910.67,-446.96"/>
<text text-anchor="middle" x="809.2" y="-504.11" font-family="Times,serif" font-size="14.00">publishes</text>
</g>
<!-- /autodrive/roboracer_1/lap_count -->
<g id="node13" class="node">
<title>/autodrive/roboracer_1/lap_count</title>
<ellipse fill="lightgreen" stroke="black" cx="1065.15" cy="-342.05" rx="177.84" ry="30.05"/>
<text text-anchor="middle" x="1065.15" y="-346" font-family="Times,serif" font-size="14.00">/autodrive/roboracer_1/lap_count</text>
<text text-anchor="middle" x="1065.15" y="-328.75" font-family="Times,serif" font-size="14.00">[std_msgs/msg/Int32]</text>
</g>
<!-- /autodrive_bridge&#45;&gt;/autodrive/roboracer_1/lap_count -->
<g id="edge12" class="edge">
<title>/autodrive_bridge&#45;&gt;/autodrive/roboracer_1/lap_count</title>
<path fill="none" stroke="black" d="M685.22,-554.51C711.75,-512.08 777.43,-418.58 861.32,-381.05 877.32,-373.9 894.59,-368.05 912.08,-363.28"/>
<polygon fill="black" stroke="black" points="912.72,-366.73 921.52,-360.83 910.96,-359.95 912.72,-366.73"/>
<text text-anchor="middle" x="809.2" y="-443.76" font-family="Times,serif" font-size="14.00">publishes</text>
</g>
<!-- /autodrive/roboracer_1/lap_time -->
<g id="node14" class="node">
<title>/autodrive/roboracer_1/lap_time</title>
<ellipse fill="lightgreen" stroke="black" cx="1065.15" cy="-264.05" rx="172.53" ry="30.05"/>
<text text-anchor="middle" x="1065.15" y="-268" font-family="Times,serif" font-size="14.00">/autodrive/roboracer_1/lap_time</text>
<text text-anchor="middle" x="1065.15" y="-250.75" font-family="Times,serif" font-size="14.00">[std_msgs/msg/Float32]</text>
</g>
<!-- /autodrive_bridge&#45;&gt;/autodrive/roboracer_1/lap_time -->
<g id="edge13" class="edge">
<title>/autodrive_bridge&#45;&gt;/autodrive/roboracer_1/lap_time</title>
<path fill="none" stroke="black" d="M679.57,-554.34C693.35,-514.61 726.63,-428.87 775.07,-369.8 805.81,-332.32 817.15,-323.01 861.32,-303.05 877.84,-295.59 895.74,-289.56 913.84,-284.67"/>
<polygon fill="black" stroke="black" points="914.53,-288.11 923.35,-282.23 912.79,-281.33 914.53,-288.11"/>
<text text-anchor="middle" x="809.2" y="-373.75" font-family="Times,serif" font-size="14.00">publishes</text>
</g>
<!-- /autodrive/roboracer_1/last_lap_time -->
<g id="node15" class="node">
<title>/autodrive/roboracer_1/last_lap_time</title>
<ellipse fill="lightgreen" stroke="black" cx="1065.15" cy="-186.05" rx="195.87" ry="30.05"/>
<text text-anchor="middle" x="1065.15" y="-190" font-family="Times,serif" font-size="14.00">/autodrive/roboracer_1/last_lap_time</text>
<text text-anchor="middle" x="1065.15" y="-172.75" font-family="Times,serif" font-size="14.00">[std_msgs/msg/Float32]</text>
</g>
<!-- /autodrive_bridge&#45;&gt;/autodrive/roboracer_1/last_lap_time -->
<g id="edge14" class="edge">
<title>/autodrive_bridge&#45;&gt;/autodrive/roboracer_1/last_lap_time</title>
<path fill="none" stroke="black" d="M675.9,-554.4C684.8,-503.95 712.39,-376.34 775.07,-290.8 805.72,-248.98 854.72,-223.82 903.74,-208.69"/>
<polygon fill="black" stroke="black" points="904.46,-212.13 913.07,-205.95 902.48,-205.41 904.46,-212.13"/>
<text text-anchor="middle" x="809.2" y="-294.75" font-family="Times,serif" font-size="14.00">publishes</text>
</g>
<!-- /autodrive/roboracer_1/best_lap_time -->
<g id="node16" class="node">
<title>/autodrive/roboracer_1/best_lap_time</title>
<ellipse fill="lightgreen" stroke="black" cx="1065.15" cy="-108.05" rx="199.05" ry="30.05"/>
<text text-anchor="middle" x="1065.15" y="-112" font-family="Times,serif" font-size="14.00">/autodrive/roboracer_1/best_lap_time</text>
<text text-anchor="middle" x="1065.15" y="-94.75" font-family="Times,serif" font-size="14.00">[std_msgs/msg/Float32]</text>
</g>
<!-- /autodrive_bridge&#45;&gt;/autodrive/roboracer_1/best_lap_time -->
<g id="edge15" class="edge">
<title>/autodrive_bridge&#45;&gt;/autodrive/roboracer_1/best_lap_time</title>
<path fill="none" stroke="black" d="M674.11,-554.34C679.51,-495.36 700.81,-329.05 775.07,-216.8 802.28,-175.69 816.62,-167.83 861.32,-147.05 874.8,-140.79 889.23,-135.53 903.95,-131.12"/>
<polygon fill="black" stroke="black" points="904.59,-134.58 913.25,-128.47 902.67,-127.84 904.59,-134.58"/>
<text text-anchor="middle" x="809.2" y="-220.75" font-family="Times,serif" font-size="14.00">publishes</text>
</g>
<!-- /autodrive/roboracer_1/collision_count -->
<g id="node17" class="node">
<title>/autodrive/roboracer_1/collision_count</title>
<ellipse fill="lightgreen" stroke="black" cx="1065.15" cy="-30.05" rx="203.82" ry="30.05"/>
<text text-anchor="middle" x="1065.15" y="-34" font-family="Times,serif" font-size="14.00">/autodrive/roboracer_1/collision_count</text>
<text text-anchor="middle" x="1065.15" y="-16.75" font-family="Times,serif" font-size="14.00">[std_msgs/msg/Int32]</text>
</g>
<!-- /autodrive_bridge&#45;&gt;/autodrive/roboracer_1/collision_count -->
<g id="edge16" class="edge">
<title>/autodrive_bridge&#45;&gt;/autodrive/roboracer_1/collision_count</title>
<path fill="none" stroke="black" d="M672.47,-554.32C673.52,-486.53 684.32,-275.15 775.07,-134.8 802.15,-92.92 847.97,-67.66 895.25,-52.46"/>
<polygon fill="black" stroke="black" points="896,-55.89 904.54,-49.62 893.96,-49.19 896,-55.89"/>
<text text-anchor="middle" x="809.2" y="-138.75" font-family="Times,serif" font-size="14.00">publishes</text>
</g>
<!-- /autodrive/roboracer_1/lidar&#45;&gt;perception -->
<g id="edge10" class="edge">
<title>/autodrive/roboracer_1/lidar&#45;&gt;perception</title>
<path fill="none" stroke="black" d="M1228.92,-498.05C1287.32,-498.05 1349.39,-498.05 1392.85,-498.05"/>
<polygon fill="black" stroke="black" points="1392.8,-501.55 1402.8,-498.05 1392.8,-494.55 1392.8,-501.55"/>
<text text-anchor="middle" x="1336.85" y="-502" font-family="Times,serif" font-size="14.00">subscribed by</text>
</g>
<!-- /autodrive/roboracer_1/throttle_command -->
<g id="node18" class="node">
<title>/autodrive/roboracer_1/throttle_command</title>
<ellipse fill="lightgreen" stroke="black" cx="225.04" cy="-654.05" rx="221.85" ry="30.05"/>
<text text-anchor="middle" x="225.04" y="-658" font-family="Times,serif" font-size="14.00">/autodrive/roboracer_1/throttle_command</text>
<text text-anchor="middle" x="225.04" y="-640.75" font-family="Times,serif" font-size="14.00">[std_msgs/msg/Float32]</text>
</g>
<!-- /autodrive/roboracer_1/throttle_command&#45;&gt;/autodrive_bridge -->
<g id="edge17" class="edge">
<title>/autodrive/roboracer_1/throttle_command&#45;&gt;/autodrive_bridge</title>
<path fill="none" stroke="black" d="M370.93,-631.09C431.82,-621.13 503.35,-609.02 567.82,-597.05 569.97,-596.65 572.14,-596.25 574.33,-595.83"/>
<polygon fill="black" stroke="black" points="574.73,-599.32 583.89,-594 573.41,-592.44 574.73,-599.32"/>
<text text-anchor="middle" x="517.95" y="-617.72" font-family="Times,serif" font-size="14.00">subscribed by</text>
</g>
<!-- /autodrive/roboracer_1/steering_command -->
<g id="node19" class="node">
<title>/autodrive/roboracer_1/steering_command</title>
<ellipse fill="lightgreen" stroke="black" cx="225.04" cy="-576.05" rx="225.04" ry="30.05"/>
<text text-anchor="middle" x="225.04" y="-580" font-family="Times,serif" font-size="14.00">/autodrive/roboracer_1/steering_command</text>
<text text-anchor="middle" x="225.04" y="-562.75" font-family="Times,serif" font-size="14.00">[std_msgs/msg/Float32]</text>
</g>
<!-- /autodrive/roboracer_1/steering_command&#45;&gt;/autodrive_bridge -->
<g id="edge18" class="edge">
<title>/autodrive/roboracer_1/steering_command&#45;&gt;/autodrive_bridge</title>
<path fill="none" stroke="black" d="M450.52,-576.05C494.17,-576.05 537.7,-576.05 574.38,-576.05"/>
<polygon fill="black" stroke="black" points="574.02,-579.55 584.02,-576.05 574.02,-572.55 574.02,-579.55"/>
<text text-anchor="middle" x="517.95" y="-580" font-family="Times,serif" font-size="14.00">subscribed by</text>
</g>
<!-- /autodrive/reset_command -->
<g id="node20" class="node">
<title>/autodrive/reset_command</title>
<ellipse fill="lightgreen" stroke="black" cx="225.04" cy="-498.05" rx="145.49" ry="30.05"/>
<text text-anchor="middle" x="225.04" y="-502" font-family="Times,serif" font-size="14.00">/autodrive/reset_command</text>
<text text-anchor="middle" x="225.04" y="-484.75" font-family="Times,serif" font-size="14.00">[std_msgs/msg/Bool]</text>
</g>
<!-- /autodrive/reset_command&#45;&gt;/autodrive_bridge -->
<g id="edge19" class="edge">
<title>/autodrive/reset_command&#45;&gt;/autodrive_bridge</title>
<path fill="none" stroke="black" d="M342.12,-516.15C408.36,-526.78 492.87,-540.83 567.82,-554.8 569.97,-555.2 572.14,-555.61 574.33,-556.03"/>
<polygon fill="black" stroke="black" points="573.41,-559.42 583.89,-557.88 574.74,-552.54 573.41,-559.42"/>
<text text-anchor="middle" x="517.95" y="-558.75" font-family="Times,serif" font-size="14.00">subscribed by</text>
</g>
</g>
</svg>
