<?xml version="1.0" encoding="UTF-8" standalone="no"?>
<!DOCTYPE svg PUBLIC "-//W3C//DTD SVG 1.1//EN"
 "http://www.w3.org/Graphics/SVG/1.1/DTD/svg11.dtd">
<!-- Generated by graphviz version 12.2.1 (20250203.1708)
 -->
<!-- Title: ROS2Group_control Pages: 1 -->
<svg width="1284pt" height="368pt"
 viewBox="0.00 0.00 1284.40 368.30" xmlns="http://www.w3.org/2000/svg" xmlns:xlink="http://www.w3.org/1999/xlink">
<g id="graph0" class="graph" transform="scale(1 1) rotate(0) translate(4 364.3)">
<title>ROS2Group_control</title>
<polygon fill="white" stroke="none" points="-4,4 -4,-364.3 1280.4,-364.3 1280.4,4 -4,4"/>
<text text-anchor="middle" x="638.2" y="-343" font-family="Times,serif" font-size="14.00">Group: control</text>
<g id="clust1" class="cluster">
<title>cluster_control</title>
<polygon fill="lightgrey" stroke="black" points="573.58,-148.05 573.58,-327.05 1265.84,-327.05 1265.84,-148.05 573.58,-148.05"/>
<text text-anchor="middle" x="919.71" y="-309.75" font-family="Times,serif" font-size="14.00">control</text>
</g>
<!-- /control/tentacles -->
<g id="node1" class="node">
<title>/control/tentacles</title>
<polygon fill="lightblue" stroke="black" points="722.08,-202.3 581.58,-202.3 581.58,-159.8 722.08,-159.8 722.08,-202.3"/>
<text text-anchor="middle" x="651.83" y="-185" font-family="Times,serif" font-size="14.00">/control/tentacles</text>
<text text-anchor="middle" x="651.83" y="-167.75" font-family="Times,serif" font-size="14.00">(control)</text>
</g>
<!-- /control/debug/tentacles -->
<g id="node2" class="node">
<title>/control/debug/tentacles</title>
<ellipse fill="lightgreen" stroke="black" cx="1051.37" cy="-186.05" rx="206.48" ry="30.05"/>
<text text-anchor="middle" x="1051.37" y="-190" font-family="Times,serif" font-size="14.00">/control/debug/tentacles</text>
<text text-anchor="middle" x="1051.37" y="-172.75" font-family="Times,serif" font-size="14.00">[visualization_msgs/msg/MarkerArray]</text>
</g>
<!-- /control/tentacles&#45;&gt;/control/debug/tentacles -->
<g id="edge1" class="edge">
<title>/control/tentacles&#45;&gt;/control/debug/tentacles</title>
<path fill="none" stroke="black" d="M722.53,-181.93C754.18,-182.33 793.53,-182.82 833.85,-183.33"/>
<polygon fill="black" stroke="black" points="833.69,-186.83 843.73,-183.45 833.78,-179.83 833.69,-186.83"/>
<text text-anchor="middle" x="774.21" y="-186.91" font-family="Times,serif" font-size="14.00">publishes</text>
</g>
<!-- /control/debug/selected -->
<g id="node3" class="node">
<title>/control/debug/selected</title>
<ellipse fill="lightgreen" stroke="black" cx="1051.37" cy="-264.05" rx="206.48" ry="30.05"/>
<text text-anchor="middle" x="1051.37" y="-268" font-family="Times,serif" font-size="14.00">/control/debug/selected</text>
<text text-anchor="middle" x="1051.37" y="-250.75" font-family="Times,serif" font-size="14.00">[visualization_msgs/msg/MarkerArray]</text>
</g>
<!-- /control/tentacles&#45;&gt;/control/debug/selected -->
<g id="edge2" class="edge">
<title>/control/tentacles&#45;&gt;/control/debug/selected</title>
<path fill="none" stroke="black" d="M722.33,-199.5C728.33,-201.05 734.31,-202.59 740.08,-204.05 778.32,-213.75 787.71,-217 826.33,-225.05 850.4,-230.07 876.02,-234.96 901.01,-239.48"/>
<polygon fill="black" stroke="black" points="900.11,-242.87 910.57,-241.19 901.34,-235.98 900.11,-242.87"/>
<text text-anchor="middle" x="774.21" y="-225.05" font-family="Times,serif" font-size="14.00">publishes</text>
</g>
<!-- /autodrive/roboracer_1/throttle_command -->
<g id="node4" class="node">
<title>/autodrive/roboracer_1/throttle_command</title>
<ellipse fill="lightgreen" stroke="black" cx="1051.37" cy="-108.05" rx="221.85" ry="30.05"/>
<text text-anchor="middle" x="1051.37" y="-112" font-family="Times,serif" font-size="14.00">/autodrive/roboracer_1/throttle_command</text>
<text text-anchor="middle" x="1051.37" y="-94.75" font-family="Times,serif" font-size="14.00">[std_msgs/msg/Float32]</text>
</g>
<!-- /control/tentacles&#45;&gt;/autodrive/roboracer_1/throttle_command -->
<g id="edge3" class="edge">
<title>/control/tentacles&#45;&gt;/autodrive/roboracer_1/throttle_command</title>
<path fill="none" stroke="black" d="M722.31,-164.69C728.32,-163.35 734.3,-162.03 740.08,-160.8 788.92,-150.4 842.43,-140.7 891.05,-132.53"/>
<polygon fill="black" stroke="black" points="891.54,-135.99 900.82,-130.9 890.38,-129.09 891.54,-135.99"/>
<text text-anchor="middle" x="774.21" y="-164.75" font-family="Times,serif" font-size="14.00">publishes</text>
</g>
<!-- /autodrive/roboracer_1/steering_command -->
<g id="node5" class="node">
<title>/autodrive/roboracer_1/steering_command</title>
<ellipse fill="lightgreen" stroke="black" cx="1051.37" cy="-30.05" rx="225.04" ry="30.05"/>
<text text-anchor="middle" x="1051.37" y="-34" font-family="Times,serif" font-size="14.00">/autodrive/roboracer_1/steering_command</text>
<text text-anchor="middle" x="1051.37" y="-16.75" font-family="Times,serif" font-size="14.00">[std_msgs/msg/Float32]</text>
</g>
<!-- /control/tentacles&#45;&gt;/autodrive/roboracer_1/steering_command -->
<g id="edge4" class="edge">
<title>/control/tentacles&#45;&gt;/autodrive/roboracer_1/steering_command</title>
<path fill="none" stroke="black" d="M678.91,-159.37C711.34,-133.6 769.4,-91.32 826.33,-69.05 841.86,-62.98 858.37,-57.85 875.11,-53.51"/>
<polygon fill="black" stroke="black" points="875.8,-56.95 884.66,-51.14 874.12,-50.15 875.8,-56.95"/>
<text text-anchor="middle" x="774.21" y="-117.89" font-family="Times,serif" font-size="14.00">publishes</text>
</g>
<!-- /perception/walls -->
<g id="node6" class="node">
<title>/perception/walls</title>
<ellipse fill="lightgreen" stroke="black" cx="222.92" cy="-181.05" rx="222.92" ry="30.05"/>
<text text-anchor="middle" x="222.92" y="-185" font-family="Times,serif" font-size="14.00">/perception/walls</text>
<text text-anchor="middle" x="222.92" y="-167.75" font-family="Times,serif" font-size="14.00">[racer_interfaces/msg/WallSegmentArray]</text>
</g>
<!-- /perception/walls&#45;&gt;/control/tentacles -->
<g id="edge5" class="edge">
<title>/perception/walls&#45;&gt;/control/tentacles</title>
<path fill="none" stroke="black" d="M446.13,-181.05C490.55,-181.05 534.47,-181.05 570.17,-181.05"/>
<polygon fill="black" stroke="black" points="569.95,-184.55 579.95,-181.05 569.94,-177.55 569.95,-184.55"/>
<text text-anchor="middle" x="513.71" y="-185" font-family="Times,serif" font-size="14.00">subscribed by</text>
</g>
</g>
</svg>
