<?xml version="1.0" encoding="UTF-8" standalone="no"?>
<!DOCTYPE svg PUBLIC "-//W3C//DTD SVG 1.1//EN"
 "http://www.w3.org/Graphics/SVG/1.1/DTD/svg11.dtd">
<!-- Generated by graphviz version 12.2.1 (20250203.1708)
 -->
<!-- Title: ROS2Graph Pages: 1 -->
<svg width="2475pt" height="1219pt"
 viewBox="0.00 0.00 2474.55 1219.00" xmlns="http://www.w3.org/2000/svg" xmlns:xlink="http://www.w3.org/1999/xlink">
<g id="graph0" class="graph" transform="scale(1 1) rotate(0) translate(4 1215)">
<title>ROS2Graph</title>
<polygon fill="white" stroke="none" points="-4,4 -4,-1215 2470.55,-1215 2470.55,4 -4,4"/>
<g id="clust1" class="cluster">
<title>cluster__autodrive_bridge</title>
<polygon fill="lightgrey" stroke="black" points="838.57,-42 838.57,-1203 1569.22,-1203 1569.22,-42 838.57,-42"/>
<text text-anchor="middle" x="1203.9" y="-1185.7" font-family="Times,serif" font-size="14.00">/autodrive_bridge</text>
</g>
<g id="clust2" class="cluster">
<title>cluster__perception_wall_extractor</title>
<polygon fill="lightgrey" stroke="black" points="1688.97,-8 1688.97,-187 2458.55,-187 2458.55,-8 1688.97,-8"/>
<text text-anchor="middle" x="2073.76" y="-169.7" font-family="Times,serif" font-size="14.00">/perception/wall_extractor</text>
</g>
<g id="clust3" class="cluster">
<title>cluster__control_tentacles</title>
<polygon fill="lightgrey" stroke="black" points="8,-287 8,-622 718.82,-622 718.82,-287 8,-287"/>
<text text-anchor="middle" x="363.41" y="-604.7" font-family="Times,serif" font-size="14.00">/control/tentacles</text>
</g>
<!-- /autodrive_bridge -->
<g id="node1" class="node">
<title>/autodrive_bridge</title>
<polygon fill="lightblue" stroke="black" points="1017.82,-607.25 846.57,-607.25 846.57,-564.75 1017.82,-564.75 1017.82,-607.25"/>
<text text-anchor="middle" x="932.2" y="-589.95" font-family="Times,serif" font-size="14.00">/autodrive_bridge</text>
<text text-anchor="middle" x="932.2" y="-572.7" font-family="Times,serif" font-size="14.00">(autodrive_roboracer)</text>
</g>
<!-- /autodrive/roboracer_1/throttle -->
<g id="node2" class="node">
<title>/autodrive/roboracer_1/throttle</title>
<ellipse fill="lightgreen" stroke="black" cx="1357.4" cy="-80" rx="168.29" ry="30.05"/>
<text text-anchor="middle" x="1357.4" y="-83.95" font-family="Times,serif" font-size="14.00">/autodrive/roboracer_1/throttle</text>
<text text-anchor="middle" x="1357.4" y="-66.7" font-family="Times,serif" font-size="14.00">[std_msgs/msg/Float32]</text>
</g>
<!-- /autodrive_bridge&#45;&gt;/autodrive/roboracer_1/throttle -->
<g id="edge2" class="edge">
<title>/autodrive_bridge&#45;&gt;/autodrive/roboracer_1/throttle</title>
<path fill="none" stroke="black" d="M935.88,-564.32C945.8,-487.33 982.59,-228.33 1035.82,-166.75 1072.69,-124.11 1128.15,-101.38 1182.62,-89.58"/>
<polygon fill="black" stroke="black" points="1183.28,-93.02 1192.38,-87.6 1181.88,-86.16 1183.28,-93.02"/>
<text text-anchor="middle" x="1085.7" y="-170.7" font-family="Times,serif" font-size="14.00">publishes</text>
</g>
<!-- /autodrive/roboracer_1/steering -->
<g id="node3" class="node">
<title>/autodrive/roboracer_1/steering</title>
<ellipse fill="lightgreen" stroke="black" cx="1357.4" cy="-158" rx="171.47" ry="30.05"/>
<text text-anchor="middle" x="1357.4" y="-161.95" font-family="Times,serif" font-size="14.00">/autodrive/roboracer_1/steering</text>
<text text-anchor="middle" x="1357.4" y="-144.7" font-family="Times,serif" font-size="14.00">[std_msgs/msg/Float32]</text>
</g>
<!-- /autodrive_bridge&#45;&gt;/autodrive/roboracer_1/steering -->
<g id="edge3" class="edge">
<title>/autodrive_bridge&#45;&gt;/autodrive/roboracer_1/steering</title>
<path fill="none" stroke="black" d="M933.97,-564.36C937.13,-506.56 953.28,-346.49 1035.82,-251.75 1073.77,-208.2 1130.72,-184.35 1186.14,-171.46"/>
<polygon fill="black" stroke="black" points="1186.7,-174.92 1195.72,-169.35 1185.2,-168.08 1186.7,-174.92"/>
<text text-anchor="middle" x="1085.7" y="-255.7" font-family="Times,serif" font-size="14.00">publishes</text>
</g>
<!-- /autodrive/roboracer_1/left_encoder -->
<g id="node4" class="node">
<title>/autodrive/roboracer_1/left_encoder</title>
<ellipse fill="lightgreen" stroke="black" cx="1357.4" cy="-236" rx="191.63" ry="30.05"/>
<text text-anchor="middle" x="1357.4" y="-239.95" font-family="Times,serif" font-size="14.00">/autodrive/roboracer_1/left_encoder</text>
<text text-anchor="middle" x="1357.4" y="-222.7" font-family="Times,serif" font-size="14.00">[sensor_msgs/msg/JointState]</text>
</g>
<!-- /autodrive_bridge&#45;&gt;/autodrive/roboracer_1/left_encoder -->
<g id="edge4" class="edge">
<title>/autodrive_bridge&#45;&gt;/autodrive/roboracer_1/left_encoder</title>
<path fill="none" stroke="black" d="M936.99,-564.43C946.19,-517.81 973.64,-406.33 1035.82,-337.75 1074.62,-294.97 1131.29,-270.06 1186.23,-255.59"/>
<polygon fill="black" stroke="black" points="1186.88,-259.04 1195.72,-253.21 1185.17,-252.25 1186.88,-259.04"/>
<text text-anchor="middle" x="1085.7" y="-341.7" font-family="Times,serif" font-size="14.00">publishes</text>
</g>
<!-- /autodrive/roboracer_1/right_encoder -->
<g id="node5" class="node">
<title>/autodrive/roboracer_1/right_encoder</title>
<ellipse fill="lightgreen" stroke="black" cx="1357.4" cy="-314" rx="199.58" ry="30.05"/>
<text text-anchor="middle" x="1357.4" y="-317.95" font-family="Times,serif" font-size="14.00">/autodrive/roboracer_1/right_encoder</text>
<text text-anchor="middle" x="1357.4" y="-300.7" font-family="Times,serif" font-size="14.00">[sensor_msgs/msg/JointState]</text>
</g>
<!-- /autodrive_bridge&#45;&gt;/autodrive/roboracer_1/right_encoder -->
<g id="edge5" class="edge">
<title>/autodrive_bridge&#45;&gt;/autodrive/roboracer_1/right_encoder</title>
<path fill="none" stroke="black" d="M941.88,-564.28C956.69,-529.46 989.79,-460.59 1035.82,-416.75 1078.68,-375.94 1137.78,-351.34 1193.57,-336.51"/>
<polygon fill="black" stroke="black" points="1194.39,-339.91 1203.21,-334.05 1192.66,-333.13 1194.39,-339.91"/>
<text text-anchor="middle" x="1085.7" y="-420.7" font-family="Times,serif" font-size="14.00">publishes</text>
</g>
<!-- /autodrive/roboracer_1/ips -->
<g id="node6" class="node">
<title>/autodrive/roboracer_1/ips</title>
<ellipse fill="lightgreen" stroke="black" cx="1357.4" cy="-392" rx="151.85" ry="30.05"/>
<text text-anchor="middle" x="1357.4" y="-395.95" font-family="Times,serif" font-size="14.00">/autodrive/roboracer_1/ips</text>
<text text-anchor="middle" x="1357.4" y="-378.7" font-family="Times,serif" font-size="14.00">[geometry_msgs/msg/Point]</text>
</g>
<!-- /autodrive_bridge&#45;&gt;/autodrive/roboracer_1/ips -->
<g id="edge6" class="edge">
<title>/autodrive_bridge&#45;&gt;/autodrive/roboracer_1/ips</title>
<path fill="none" stroke="black" d="M953.85,-564.28C973.67,-544.19 1005.05,-514.27 1035.82,-492.75 1084.25,-458.88 1097.79,-450.51 1153.57,-431 1175.41,-423.36 1199.13,-417.09 1222.39,-411.99"/>
<polygon fill="black" stroke="black" points="1222.86,-415.47 1231.92,-409.97 1221.41,-408.62 1222.86,-415.47"/>
<text text-anchor="middle" x="1085.7" y="-496.7" font-family="Times,serif" font-size="14.00">publishes</text>
</g>
<!-- /autodrive/roboracer_1/imu -->
<g id="node7" class="node">
<title>/autodrive/roboracer_1/imu</title>
<ellipse fill="lightgreen" stroke="black" cx="1357.4" cy="-470" rx="148.67" ry="30.05"/>
<text text-anchor="middle" x="1357.4" y="-473.95" font-family="Times,serif" font-size="14.00">/autodrive/roboracer_1/imu</text>
<text text-anchor="middle" x="1357.4" y="-456.7" font-family="Times,serif" font-size="14.00">[sensor_msgs/msg/Imu]</text>
</g>
<!-- /autodrive_bridge&#45;&gt;/autodrive/roboracer_1/imu -->
<g id="edge7" class="edge">
<title>/autodrive_bridge&#45;&gt;/autodrive/roboracer_1/imu</title>
<path fill="none" stroke="black" d="M988.38,-564.25C1003.69,-558.4 1020.35,-552.19 1035.82,-546.75 1087.68,-528.54 1100.33,-522.6 1153.57,-509 1178.58,-502.61 1205.55,-496.73 1231.41,-491.58"/>
<polygon fill="black" stroke="black" points="1231.8,-495.08 1240.93,-489.71 1230.45,-488.21 1231.8,-495.08"/>
<text text-anchor="middle" x="1085.7" y="-550.7" font-family="Times,serif" font-size="14.00">publishes</text>
</g>
<!-- /autodrive/roboracer_1/odom -->
<g id="node8" class="node">
<title>/autodrive/roboracer_1/odom</title>
<ellipse fill="lightgreen" stroke="black" cx="1357.4" cy="-548" rx="157.15" ry="30.05"/>
<text text-anchor="middle" x="1357.4" y="-551.95" font-family="Times,serif" font-size="14.00">/autodrive/roboracer_1/odom</text>
<text text-anchor="middle" x="1357.4" y="-534.7" font-family="Times,serif" font-size="14.00">[nav_msgs/msg/Odometry]</text>
</g>
<!-- /autodrive_bridge&#45;&gt;/autodrive/roboracer_1/odom -->
<g id="edge8" class="edge">
<title>/autodrive_bridge&#45;&gt;/autodrive/roboracer_1/odom</title>
<path fill="none" stroke="black" d="M1018.32,-578.32C1024.24,-577.79 1030.12,-577.26 1035.82,-576.75 1090.38,-571.84 1150.16,-566.48 1203.16,-561.73"/>
<polygon fill="black" stroke="black" points="1203.21,-565.24 1212.86,-560.86 1202.59,-558.27 1203.21,-565.24"/>
<text text-anchor="middle" x="1085.7" y="-580.7" font-family="Times,serif" font-size="14.00">publishes</text>
</g>
<!-- /autodrive/roboracer_1/lidar -->
<g id="node9" class="node">
<title>/autodrive/roboracer_1/lidar</title>
<ellipse fill="lightgreen" stroke="black" cx="1357.4" cy="-626" rx="163.52" ry="30.05"/>
<text text-anchor="middle" x="1357.4" y="-629.95" font-family="Times,serif" font-size="14.00">/autodrive/roboracer_1/lidar</text>
<text text-anchor="middle" x="1357.4" y="-612.7" font-family="Times,serif" font-size="14.00">[sensor_msgs/msg/LaserScan]</text>
</g>
<!-- /autodrive_bridge&#45;&gt;/autodrive/roboracer_1/lidar -->
<g id="edge9" class="edge">
<title>/autodrive_bridge&#45;&gt;/autodrive/roboracer_1/lidar</title>
<path fill="none" stroke="black" d="M1018.08,-594.02C1070.09,-598.94 1138.29,-605.38 1199.81,-611.2"/>
<polygon fill="black" stroke="black" points="1199.43,-614.68 1209.71,-612.14 1200.09,-607.71 1199.43,-614.68"/>
<text text-anchor="middle" x="1085.7" y="-608.75" font-family="Times,serif" font-size="14.00">publishes</text>
</g>
<!-- /autodrive/roboracer_1/front_camera -->
<g id="node10" class="node">
<title>/autodrive/roboracer_1/front_camera</title>
<ellipse fill="lightgreen" stroke="black" cx="1357.4" cy="-704" rx="196.4" ry="30.05"/>
<text text-anchor="middle" x="1357.4" y="-707.95" font-family="Times,serif" font-size="14.00">/autodrive/roboracer_1/front_camera</text>
<text text-anchor="middle" x="1357.4" y="-690.7" font-family="Times,serif" font-size="14.00">[sensor_msgs/msg/Image]</text>
</g>
<!-- /autodrive_bridge&#45;&gt;/autodrive/roboracer_1/front_camera -->
<g id="edge11" class="edge">
<title>/autodrive_bridge&#45;&gt;/autodrive/roboracer_1/front_camera</title>
<path fill="none" stroke="black" d="M987.33,-607.7C1002.92,-613.79 1019.99,-620.3 1035.82,-626 1087.69,-644.68 1100.23,-651.1 1153.57,-665 1173.13,-670.1 1193.91,-674.84 1214.43,-679.14"/>
<polygon fill="black" stroke="black" points="1213.47,-682.51 1223.97,-681.11 1214.88,-675.66 1213.47,-682.51"/>
<text text-anchor="middle" x="1085.7" y="-663.5" font-family="Times,serif" font-size="14.00">publishes</text>
</g>
<!-- /autodrive/roboracer_1/lap_count -->
<g id="node11" class="node">
<title>/autodrive/roboracer_1/lap_count</title>
<ellipse fill="lightgreen" stroke="black" cx="1357.4" cy="-782" rx="177.84" ry="30.05"/>
<text text-anchor="middle" x="1357.4" y="-785.95" font-family="Times,serif" font-size="14.00">/autodrive/roboracer_1/lap_count</text>
<text text-anchor="middle" x="1357.4" y="-768.7" font-family="Times,serif" font-size="14.00">[std_msgs/msg/Int32]</text>
</g>
<!-- /autodrive_bridge&#45;&gt;/autodrive/roboracer_1/lap_count -->
<g id="edge12" class="edge">
<title>/autodrive_bridge&#45;&gt;/autodrive/roboracer_1/lap_count</title>
<path fill="none" stroke="black" d="M953.03,-607.37C972.76,-627.85 1004.51,-658.84 1035.82,-681 1084.11,-715.16 1097.76,-723.43 1153.57,-743 1172.06,-749.48 1191.89,-754.98 1211.66,-759.6"/>
<polygon fill="black" stroke="black" points="1210.62,-762.96 1221.14,-761.75 1212.16,-756.13 1210.62,-762.96"/>
<text text-anchor="middle" x="1085.7" y="-740.33" font-family="Times,serif" font-size="14.00">publishes</text>
</g>
<!-- /autodrive/roboracer_1/lap_time -->
<g id="node12" class="node">
<title>/autodrive/roboracer_1/lap_time</title>
<ellipse fill="lightgreen" stroke="black" cx="1357.4" cy="-860" rx="172.53" ry="30.05"/>
<text text-anchor="middle" x="1357.4" y="-863.95" font-family="Times,serif" font-size="14.00">/autodrive/roboracer_1/lap_time</text>
<text text-anchor="middle" x="1357.4" y="-846.7" font-family="Times,serif" font-size="14.00">[std_msgs/msg/Float32]</text>
</g>
<!-- /autodrive_bridge&#45;&gt;/autodrive/roboracer_1/lap_time -->
<g id="edge13" class="edge">
<title>/autodrive_bridge&#45;&gt;/autodrive/roboracer_1/lap_time</title>
<path fill="none" stroke="black" d="M941.53,-607.53C956.06,-642.78 989.04,-713.35 1035.82,-758 1081.07,-801.18 1144.55,-826.08 1203.1,-840.44"/>
<polygon fill="black" stroke="black" points="1201.96,-843.77 1212.5,-842.66 1203.57,-836.96 1201.96,-843.77"/>
<text text-anchor="middle" x="1085.7" y="-819.68" font-family="Times,serif" font-size="14.00">publishes</text>
</g>
<!-- /autodrive/roboracer_1/last_lap_time -->
<g id="node13" class="node">
<title>/autodrive/roboracer_1/last_lap_time</title>
<ellipse fill="lightgreen" stroke="black" cx="1357.4" cy="-938" rx="195.87" ry="30.05"/>
<text text-anchor="middle" x="1357.4" y="-941.95" font-family="Times,serif" font-size="14.00">/autodrive/roboracer_1/last_lap_time</text>
<text text-anchor="middle" x="1357.4" y="-924.7" font-family="Times,serif" font-size="14.00">[std_msgs/msg/Float32]</text>
</g>
<!-- /autodrive_bridge&#45;&gt;/autodrive/roboracer_1/last_lap_time -->
<g id="edge14" class="edge">
<title>/autodrive_bridge&#45;&gt;/autodrive/roboracer_1/last_lap_time</title>
<path fill="none" stroke="black" d="M936.83,-607.47C945.77,-654.44 972.85,-767.64 1035.82,-837 1073.99,-879.04 1129.45,-903.71 1183.54,-918.14"/>
<polygon fill="black" stroke="black" points="1182.68,-921.54 1193.23,-920.61 1184.41,-914.75 1182.68,-921.54"/>
<text text-anchor="middle" x="1085.7" y="-905.12" font-family="Times,serif" font-size="14.00">publishes</text>
</g>
<!-- /autodrive/roboracer_1/best_lap_time -->
<g id="node14" class="node">
<title>/autodrive/roboracer_1/best_lap_time</title>
<ellipse fill="lightgreen" stroke="black" cx="1357.4" cy="-1016" rx="199.05" ry="30.05"/>
<text text-anchor="middle" x="1357.4" y="-1019.95" font-family="Times,serif" font-size="14.00">/autodrive/roboracer_1/best_lap_time</text>
<text text-anchor="middle" x="1357.4" y="-1002.7" font-family="Times,serif" font-size="14.00">[std_msgs/msg/Float32]</text>
</g>
<!-- /autodrive_bridge&#45;&gt;/autodrive/roboracer_1/best_lap_time -->
<g id="edge15" class="edge">
<title>/autodrive_bridge&#45;&gt;/autodrive/roboracer_1/best_lap_time</title>
<path fill="none" stroke="black" d="M933.94,-607.74C937.03,-665.82 953.04,-826.67 1035.82,-922 1070.28,-961.67 1120.5,-985.04 1171.01,-998.67"/>
<polygon fill="black" stroke="black" points="1170.11,-1002.05 1180.66,-1001.14 1171.84,-995.27 1170.11,-1002.05"/>
<text text-anchor="middle" x="1085.7" y="-989.59" font-family="Times,serif" font-size="14.00">publishes</text>
</g>
<!-- /autodrive/roboracer_1/collision_count -->
<g id="node15" class="node">
<title>/autodrive/roboracer_1/collision_count</title>
<ellipse fill="lightgreen" stroke="black" cx="1357.4" cy="-1094" rx="203.82" ry="30.05"/>
<text text-anchor="middle" x="1357.4" y="-1097.95" font-family="Times,serif" font-size="14.00">/autodrive/roboracer_1/collision_count</text>
<text text-anchor="middle" x="1357.4" y="-1080.7" font-family="Times,serif" font-size="14.00">[std_msgs/msg/Int32]</text>
</g>
<!-- /autodrive_bridge&#45;&gt;/autodrive/roboracer_1/collision_count -->
<g id="edge16" class="edge">
<title>/autodrive_bridge&#45;&gt;/autodrive/roboracer_1/collision_count</title>
<path fill="none" stroke="black" d="M935.84,-607.5C945.68,-684.47 982.41,-945.03 1035.82,-1007 1067.52,-1043.78 1113.05,-1065.77 1159.87,-1078.73"/>
<polygon fill="black" stroke="black" points="1158.8,-1082.07 1169.36,-1081.22 1160.58,-1075.3 1158.8,-1082.07"/>
<text text-anchor="middle" x="1085.7" y="-1073.3" font-family="Times,serif" font-size="14.00">publishes</text>
</g>
<!-- /autodrive_bridge__tf_broadcaster -->
<g id="node16" class="node">
<title>/autodrive_bridge__tf_broadcaster</title>
<ellipse fill="lightsalmon" stroke="black" cx="1357.4" cy="-1156" rx="61.7" ry="13.61"/>
<text text-anchor="middle" x="1357.4" y="-1153.08" font-family="Times,serif" font-size="9.00">TF Broadcaster</text>
</g>
<!-- /autodrive_bridge&#45;&gt;/autodrive_bridge__tf_broadcaster -->
<g id="edge1" class="edge">
<title>/autodrive_bridge&#45;&gt;/autodrive_bridge__tf_broadcaster</title>
<path fill="none" stroke="grey" stroke-width="0.5" d="M934.8,-607.55C941.63,-694.22 971.06,-1016.31 1035.82,-1091 1101.95,-1167.26 1230.8,-1168.96 1303.39,-1162.87"/>
</g>
<!-- /perception/wall_extractor -->
<g id="node17" class="node">
<title>/perception/wall_extractor</title>
<polygon fill="lightblue" stroke="black" points="1900.47,-145.25 1696.97,-145.25 1696.97,-102.75 1900.47,-102.75 1900.47,-145.25"/>
<text text-anchor="middle" x="1798.72" y="-127.95" font-family="Times,serif" font-size="14.00">/perception/wall_extractor</text>
<text text-anchor="middle" x="1798.72" y="-110.7" font-family="Times,serif" font-size="14.00">(perception)</text>
</g>
<!-- /autodrive/roboracer_1/lidar&#45;&gt;/perception/wall_extractor -->
<g id="edge10" class="edge">
<title>/autodrive/roboracer_1/lidar&#45;&gt;/perception/wall_extractor</title>
<path fill="none" stroke="black" d="M1511.03,-615.39C1531.94,-609.07 1552.08,-599.97 1569.22,-587 1716.87,-475.31 1775.01,-242.47 1791.96,-156.67"/>
<polygon fill="black" stroke="black" points="1795.36,-157.53 1793.8,-147.05 1788.48,-156.21 1795.36,-157.53"/>
<text text-anchor="middle" x="1629.1" y="-582.42" font-family="Times,serif" font-size="14.00">subscribed by</text>
</g>
<!-- /perception/walls -->
<g id="node18" class="node">
<title>/perception/walls</title>
<ellipse fill="lightgreen" stroke="black" cx="2227.64" cy="-46" rx="222.92" ry="30.05"/>
<text text-anchor="middle" x="2227.64" y="-49.95" font-family="Times,serif" font-size="14.00">/perception/walls</text>
<text text-anchor="middle" x="2227.64" y="-32.7" font-family="Times,serif" font-size="14.00">[racer_interfaces/msg/WallSegmentArray]</text>
</g>
<!-- /perception/wall_extractor&#45;&gt;/perception/walls -->
<g id="edge22" class="edge">
<title>/perception/wall_extractor&#45;&gt;/perception/walls</title>
<path fill="none" stroke="black" d="M1900.81,-104.48C1933.91,-98.16 1970.87,-91.19 2004.72,-85 2028.33,-80.68 2053.37,-76.19 2077.79,-71.86"/>
<polygon fill="black" stroke="black" points="2078.24,-75.34 2087.48,-70.15 2077.02,-68.44 2078.24,-75.34"/>
<text text-anchor="middle" x="1952.6" y="-104.74" font-family="Times,serif" font-size="14.00">publishes</text>
</g>
<!-- /perception/debug/walls -->
<g id="node19" class="node">
<title>/perception/debug/walls</title>
<ellipse fill="lightgreen" stroke="black" cx="2227.64" cy="-124" rx="206.48" ry="30.05"/>
<text text-anchor="middle" x="2227.64" y="-127.95" font-family="Times,serif" font-size="14.00">/perception/debug/walls</text>
<text text-anchor="middle" x="2227.64" y="-110.7" font-family="Times,serif" font-size="14.00">[visualization_msgs/msg/MarkerArray]</text>
</g>
<!-- /perception/wall_extractor&#45;&gt;/perception/debug/walls -->
<g id="edge24" class="edge">
<title>/perception/wall_extractor&#45;&gt;/perception/debug/walls</title>
<path fill="none" stroke="black" d="M1900.89,-124C1933.77,-124 1971.62,-124 2009.61,-124"/>
<polygon fill="black" stroke="black" points="2009.35,-127.5 2019.35,-124 2009.35,-120.5 2009.35,-127.5"/>
<text text-anchor="middle" x="1952.6" y="-127.95" font-family="Times,serif" font-size="14.00">publishes</text>
</g>
<!-- /control/tentacles -->
<g id="node20" class="node">
<title>/control/tentacles</title>
<polygon fill="lightblue" stroke="black" points="156.5,-424.25 16,-424.25 16,-381.75 156.5,-381.75 156.5,-424.25"/>
<text text-anchor="middle" x="86.25" y="-406.95" font-family="Times,serif" font-size="14.00">/control/tentacles</text>
<text text-anchor="middle" x="86.25" y="-389.7" font-family="Times,serif" font-size="14.00">(control)</text>
</g>
<!-- /perception/walls&#45;&gt;/control/tentacles -->
<g id="edge23" class="edge">
<title>/perception/walls&#45;&gt;/control/tentacles</title>
<path fill="none" stroke="black" d="M2045.84,-28.27C1969.9,-22.25 1880.6,-17 1799.72,-17 484.79,-17 484.79,-17 484.79,-17 282.11,-17 143.78,-278.44 101.16,-371"/>
<polygon fill="black" stroke="black" points="98,-369.49 97.06,-380.04 104.37,-372.38 98,-369.49"/>
<text text-anchor="middle" x="1085.7" y="-20.95" font-family="Times,serif" font-size="14.00">subscribed by</text>
</g>
<!-- /autodrive/roboracer_1/throttle_command -->
<g id="node21" class="node">
<title>/autodrive/roboracer_1/throttle_command</title>
<ellipse fill="lightgreen" stroke="black" cx="485.79" cy="-403" rx="221.85" ry="30.05"/>
<text text-anchor="middle" x="485.79" y="-406.95" font-family="Times,serif" font-size="14.00">/autodrive/roboracer_1/throttle_command</text>
<text text-anchor="middle" x="485.79" y="-389.7" font-family="Times,serif" font-size="14.00">[std_msgs/msg/Float32]</text>
</g>
<!-- /control/tentacles&#45;&gt;/autodrive/roboracer_1/throttle_command -->
<g id="edge17" class="edge">
<title>/control/tentacles&#45;&gt;/autodrive/roboracer_1/throttle_command</title>
<path fill="none" stroke="black" d="M156.95,-403C184.38,-403 217.58,-403 252.2,-403"/>
<polygon fill="black" stroke="black" points="251.96,-406.5 261.96,-403 251.96,-399.5 251.96,-406.5"/>
<text text-anchor="middle" x="208.62" y="-406.95" font-family="Times,serif" font-size="14.00">publishes</text>
</g>
<!-- /autodrive/roboracer_1/steering_command -->
<g id="node22" class="node">
<title>/autodrive/roboracer_1/steering_command</title>
<ellipse fill="lightgreen" stroke="black" cx="485.79" cy="-325" rx="225.04" ry="30.05"/>
<text text-anchor="middle" x="485.79" y="-328.95" font-family="Times,serif" font-size="14.00">/autodrive/roboracer_1/steering_command</text>
<text text-anchor="middle" x="485.79" y="-311.7" font-family="Times,serif" font-size="14.00">[std_msgs/msg/Float32]</text>
</g>
<!-- /control/tentacles&#45;&gt;/autodrive/roboracer_1/steering_command -->
<g id="edge19" class="edge">
<title>/control/tentacles&#45;&gt;/autodrive/roboracer_1/steering_command</title>
<path fill="none" stroke="black" d="M156.73,-385.84C162.73,-384.43 168.72,-383.05 174.5,-381.75 225.29,-370.34 281.15,-359.58 331.3,-350.56"/>
<polygon fill="black" stroke="black" points="331.86,-354.02 341.09,-348.81 330.63,-347.12 331.86,-354.02"/>
<text text-anchor="middle" x="208.62" y="-385.7" font-family="Times,serif" font-size="14.00">publishes</text>
</g>
<!-- /control/debug/tentacles -->
<g id="node23" class="node">
<title>/control/debug/tentacles</title>
<ellipse fill="lightgreen" stroke="black" cx="485.79" cy="-481" rx="206.48" ry="30.05"/>
<text text-anchor="middle" x="485.79" y="-484.95" font-family="Times,serif" font-size="14.00">/control/debug/tentacles</text>
<text text-anchor="middle" x="485.79" y="-467.7" font-family="Times,serif" font-size="14.00">[visualization_msgs/msg/MarkerArray]</text>
</g>
<!-- /control/tentacles&#45;&gt;/control/debug/tentacles -->
<g id="edge25" class="edge">
<title>/control/tentacles&#45;&gt;/control/debug/tentacles</title>
<path fill="none" stroke="black" d="M156.74,-419.93C162.74,-421.33 168.72,-422.7 174.5,-424 227.15,-435.83 285.23,-446.99 336.76,-456.25"/>
<polygon fill="black" stroke="black" points="336.05,-459.68 346.51,-458 337.28,-452.79 336.05,-459.68"/>
<text text-anchor="middle" x="208.62" y="-442.27" font-family="Times,serif" font-size="14.00">publishes</text>
</g>
<!-- /control/debug/selected -->
<g id="node24" class="node">
<title>/control/debug/selected</title>
<ellipse fill="lightgreen" stroke="black" cx="485.79" cy="-559" rx="206.48" ry="30.05"/>
<text text-anchor="middle" x="485.79" y="-562.95" font-family="Times,serif" font-size="14.00">/control/debug/selected</text>
<text text-anchor="middle" x="485.79" y="-545.7" font-family="Times,serif" font-size="14.00">[visualization_msgs/msg/MarkerArray]</text>
</g>
<!-- /control/tentacles&#45;&gt;/control/debug/selected -->
<g id="edge26" class="edge">
<title>/control/tentacles&#45;&gt;/control/debug/selected</title>
<path fill="none" stroke="black" d="M111.75,-424.52C143.71,-451.34 202.45,-496.52 260.75,-520 277.66,-526.81 295.76,-532.43 314.07,-537.07"/>
<polygon fill="black" stroke="black" points="313.16,-540.45 323.71,-539.41 314.81,-533.65 313.16,-540.45"/>
<text text-anchor="middle" x="208.62" y="-514.77" font-family="Times,serif" font-size="14.00">publishes</text>
</g>
<!-- /autodrive/roboracer_1/throttle_command&#45;&gt;/autodrive_bridge -->
<g id="edge18" class="edge">
<title>/autodrive/roboracer_1/throttle_command&#45;&gt;/autodrive_bridge</title>
<path fill="none" stroke="black" d="M655.81,-422.63C677.42,-427.68 698.92,-434.02 718.82,-442 788.64,-469.98 858.75,-523.7 898.39,-557.02"/>
<polygon fill="black" stroke="black" points="896.05,-559.63 905.93,-563.44 900.58,-554.29 896.05,-559.63"/>
<text text-anchor="middle" x="778.7" y="-507.27" font-family="Times,serif" font-size="14.00">subscribed by</text>
</g>
<!-- /autodrive/roboracer_1/steering_command&#45;&gt;/autodrive_bridge -->
<g id="edge20" class="edge">
<title>/autodrive/roboracer_1/steering_command&#45;&gt;/autodrive_bridge</title>
<path fill="none" stroke="black" d="M661.43,-344C720.68,-358.24 783.26,-382.95 828.57,-425.75 868.41,-463.37 899.7,-519.5 916.8,-554.37"/>
<polygon fill="black" stroke="black" points="913.51,-555.6 920.99,-563.1 919.82,-552.57 913.51,-555.6"/>
<text text-anchor="middle" x="778.7" y="-429.7" font-family="Times,serif" font-size="14.00">subscribed by</text>
</g>
<!-- /autodrive/reset_command -->
<g id="node25" class="node">
<title>/autodrive/reset_command</title>
<ellipse fill="lightgreen" stroke="black" cx="485.79" cy="-660" rx="145.49" ry="30.05"/>
<text text-anchor="middle" x="485.79" y="-663.95" font-family="Times,serif" font-size="14.00">/autodrive/reset_command</text>
<text text-anchor="middle" x="485.79" y="-646.7" font-family="Times,serif" font-size="14.00">[std_msgs/msg/Bool]</text>
</g>
<!-- /autodrive/reset_command&#45;&gt;/autodrive_bridge -->
<g id="edge21" class="edge">
<title>/autodrive/reset_command&#45;&gt;/autodrive_bridge</title>
<path fill="none" stroke="black" d="M607.66,-643.24C643.49,-638.01 682.78,-632.03 718.82,-626 756.89,-619.63 798.65,-611.92 834.99,-604.98"/>
<polygon fill="black" stroke="black" points="835.44,-608.46 844.6,-603.13 834.12,-601.58 835.44,-608.46"/>
<text text-anchor="middle" x="778.7" y="-628.01" font-family="Times,serif" font-size="14.00">subscribed by</text>
</g>
</g>
</svg>
