<?xml version="1.0" encoding="UTF-8" standalone="no"?>
<!DOCTYPE svg PUBLIC "-//W3C//DTD SVG 1.1//EN"
 "http://www.w3.org/Graphics/SVG/1.1/DTD/svg11.dtd">
<!-- Generated by graphviz version 12.2.1 (20250203.1708)
 -->
<!-- Title: ROS2Group_perception Pages: 1 -->
<svg width="1224pt" height="212pt"
 viewBox="0.00 0.00 1224.37 212.30" xmlns="http://www.w3.org/2000/svg" xmlns:xlink="http://www.w3.org/1999/xlink">
<g id="graph0" class="graph" transform="scale(1 1) rotate(0) translate(4 208.3)">
<title>ROS2Group_perception</title>
<polygon fill="white" stroke="none" points="-4,4 -4,-208.3 1220.37,-208.3 1220.37,4 -4,4"/>
<text text-anchor="middle" x="608.18" y="-187" font-family="Times,serif" font-size="14.00">Group: perception</text>
<g id="clust1" class="cluster">
<title>cluster_perception</title>
<polygon fill="lightgrey" stroke="black" points="454.79,-70.05 454.79,-171.05 1207.93,-171.05 1207.93,-70.05 454.79,-70.05"/>
<text text-anchor="middle" x="831.36" y="-153.75" font-family="Times,serif" font-size="14.00">perception</text>
</g>
<!-- /perception/wall_extractor -->
<g id="node1" class="node">
<title>/perception/wall_extractor</title>
<polygon fill="lightblue" stroke="black" points="666.29,-124.3 462.79,-124.3 462.79,-81.8 666.29,-81.8 666.29,-124.3"/>
<text text-anchor="middle" x="564.54" y="-107" font-family="Times,serif" font-size="14.00">/perception/wall_extractor</text>
<text text-anchor="middle" x="564.54" y="-89.75" font-family="Times,serif" font-size="14.00">(perception)</text>
</g>
<!-- /perception/debug/walls -->
<g id="node2" class="node">
<title>/perception/debug/walls</title>
<ellipse fill="lightgreen" stroke="black" cx="993.45" cy="-108.05" rx="206.48" ry="30.05"/>
<text text-anchor="middle" x="993.45" y="-112" font-family="Times,serif" font-size="14.00">/perception/debug/walls</text>
<text text-anchor="middle" x="993.45" y="-94.75" font-family="Times,serif" font-size="14.00">[visualization_msgs/msg/MarkerArray]</text>
</g>
<!-- /perception/wall_extractor&#45;&gt;/perception/debug/walls -->
<g id="edge1" class="edge">
<title>/perception/wall_extractor&#45;&gt;/perception/debug/walls</title>
<path fill="none" stroke="black" d="M666.71,-104.24C699.81,-104.62 737.95,-105.07 776.21,-105.52"/>
<polygon fill="black" stroke="black" points="775.98,-109.02 786.02,-105.63 776.06,-102.02 775.98,-109.02"/>
<text text-anchor="middle" x="718.41" y="-109.05" font-family="Times,serif" font-size="14.00">publishes</text>
</g>
<!-- /perception/walls -->
<g id="node4" class="node">
<title>/perception/walls</title>
<ellipse fill="lightgreen" stroke="black" cx="993.45" cy="-30.05" rx="222.92" ry="30.05"/>
<text text-anchor="middle" x="993.45" y="-34" font-family="Times,serif" font-size="14.00">/perception/walls</text>
<text text-anchor="middle" x="993.45" y="-16.75" font-family="Times,serif" font-size="14.00">[racer_interfaces/msg/WallSegmentArray]</text>
</g>
<!-- /perception/wall_extractor&#45;&gt;/perception/walls -->
<g id="edge3" class="edge">
<title>/perception/wall_extractor&#45;&gt;/perception/walls</title>
<path fill="none" stroke="black" d="M666.62,-84.44C699.71,-78.45 736.67,-71.85 770.54,-66.05 791.85,-62.4 814.32,-58.64 836.47,-55"/>
<polygon fill="black" stroke="black" points="836.86,-58.48 846.16,-53.41 835.72,-51.57 836.86,-58.48"/>
<text text-anchor="middle" x="718.41" y="-84.89" font-family="Times,serif" font-size="14.00">publishes</text>
</g>
<!-- /autodrive/roboracer_1/lidar -->
<g id="node3" class="node">
<title>/autodrive/roboracer_1/lidar</title>
<ellipse fill="lightgreen" stroke="black" cx="163.52" cy="-103.05" rx="163.52" ry="30.05"/>
<text text-anchor="middle" x="163.52" y="-107" font-family="Times,serif" font-size="14.00">/autodrive/roboracer_1/lidar</text>
<text text-anchor="middle" x="163.52" y="-89.75" font-family="Times,serif" font-size="14.00">[sensor_msgs/msg/LaserScan]</text>
</g>
<!-- /autodrive/roboracer_1/lidar&#45;&gt;/perception/wall_extractor -->
<g id="edge2" class="edge">
<title>/autodrive/roboracer_1/lidar&#45;&gt;/perception/wall_extractor</title>
<path fill="none" stroke="black" d="M327.39,-103.05C368.97,-103.05 412.75,-103.05 451.16,-103.05"/>
<polygon fill="black" stroke="black" points="450.86,-106.55 460.86,-103.05 450.86,-99.55 450.86,-106.55"/>
<text text-anchor="middle" x="394.91" y="-107" font-family="Times,serif" font-size="14.00">subscribed by</text>
</g>
</g>
</svg>
