<?xml version="1.0" encoding="UTF-8" standalone="no"?>
<!DOCTYPE svg PUBLIC "-//W3C//DTD SVG 1.1//EN"
 "http://www.w3.org/Graphics/SVG/1.1/DTD/svg11.dtd">
<!-- Generated by graphviz version 12.2.1 (20250203.1708)
 -->
<!-- Title: ROS2TopLevel Pages: 1 -->
<svg width="2282pt" height="1128pt"
 viewBox="0.00 0.00 2281.55 1128.10" xmlns="http://www.w3.org/2000/svg" xmlns:xlink="http://www.w3.org/1999/xlink">
<g id="graph0" class="graph" transform="scale(1 1) rotate(0) translate(4 1124.1)">
<title>ROS2TopLevel</title>
<polygon fill="white" stroke="none" points="-4,4 -4,-1124.1 2277.55,-1124.1 2277.55,4 -4,4"/>
<g id="clust1" class="cluster">
<title>cluster_perception</title>
<polygon fill="lightgrey" stroke="black" points="8,-201.05 8,-302.05 666.58,-302.05 666.58,-201.05 8,-201.05"/>
<text text-anchor="middle" x="337.29" y="-284.75" font-family="Times,serif" font-size="14.00">perception</text>
</g>
<g id="clust2" class="cluster">
<title>cluster_control</title>
<polygon fill="lightgrey" stroke="black" points="786.33,-355.05 786.33,-534.05 1462.65,-534.05 1462.65,-355.05 786.33,-355.05"/>
<text text-anchor="middle" x="1124.49" y="-516.75" font-family="Times,serif" font-size="14.00">control</text>
</g>
<!-- perception -->
<g id="node1" class="node">
<title>perception</title>
<polygon fill="lightblue" stroke="black" points="108.5,-255.3 16,-255.3 16,-212.8 108.5,-212.8 108.5,-255.3"/>
<text text-anchor="middle" x="62.25" y="-238" font-family="Times,serif" font-size="14.00">perception</text>
<text text-anchor="middle" x="62.25" y="-220.75" font-family="Times,serif" font-size="14.00">(1 node)</text>
</g>
<!-- /perception/walls -->
<g id="node2" class="node">
<title>/perception/walls</title>
<ellipse fill="lightgreen" stroke="black" cx="435.67" cy="-239.05" rx="222.92" ry="30.05"/>
<text text-anchor="middle" x="435.67" y="-243" font-family="Times,serif" font-size="14.00">/perception/walls</text>
<text text-anchor="middle" x="435.67" y="-225.75" font-family="Times,serif" font-size="14.00">[racer_interfaces/msg/WallSegmentArray]</text>
</g>
<!-- perception&#45;&gt;/perception/walls -->
<g id="edge22" class="edge">
<title>perception&#45;&gt;/perception/walls</title>
<path fill="none" stroke="black" d="M108.79,-234.67C133.81,-235 166.94,-235.45 202.49,-235.93"/>
<polygon fill="black" stroke="black" points="202.04,-239.42 212.09,-236.06 202.13,-232.42 202.04,-239.42"/>
<text text-anchor="middle" x="160.62" y="-239.76" font-family="Times,serif" font-size="14.00">publishes</text>
</g>
<!-- control -->
<g id="node3" class="node">
<title>control</title>
<polygon fill="lightblue" stroke="black" points="868.83,-414.3 794.33,-414.3 794.33,-371.8 868.83,-371.8 868.83,-414.3"/>
<text text-anchor="middle" x="831.58" y="-397" font-family="Times,serif" font-size="14.00">control</text>
<text text-anchor="middle" x="831.58" y="-379.75" font-family="Times,serif" font-size="14.00">(1 node)</text>
</g>
<!-- /perception/walls&#45;&gt;control -->
<g id="edge23" class="edge">
<title>/perception/walls&#45;&gt;control</title>
<path fill="none" stroke="black" d="M510.3,-267.84C590.41,-299.16 716.07,-348.28 783.71,-374.73"/>
<polygon fill="black" stroke="black" points="782.06,-377.84 792.65,-378.22 784.61,-371.32 782.06,-377.84"/>
<text text-anchor="middle" x="726.46" y="-374.65" font-family="Times,serif" font-size="14.00">subscribed by</text>
</g>
<!-- /autodrive/roboracer_1/throttle_command -->
<g id="node4" class="node">
<title>/autodrive/roboracer_1/throttle_command</title>
<ellipse fill="lightgreen" stroke="black" cx="1229.62" cy="-471.05" rx="221.85" ry="30.05"/>
<text text-anchor="middle" x="1229.62" y="-475" font-family="Times,serif" font-size="14.00">/autodrive/roboracer_1/throttle_command</text>
<text text-anchor="middle" x="1229.62" y="-457.75" font-family="Times,serif" font-size="14.00">[std_msgs/msg/Float32]</text>
</g>
<!-- control&#45;&gt;/autodrive/roboracer_1/throttle_command -->
<g id="edge17" class="edge">
<title>control&#45;&gt;/autodrive/roboracer_1/throttle_command</title>
<path fill="none" stroke="black" d="M869.3,-408.42C875.1,-410.51 881.08,-412.48 886.83,-414.05 940.3,-428.69 999.56,-440.18 1053.52,-448.89"/>
<polygon fill="black" stroke="black" points="1052.67,-452.3 1063.09,-450.41 1053.77,-445.38 1052.67,-452.3"/>
<text text-anchor="middle" x="936.71" y="-439.55" font-family="Times,serif" font-size="14.00">publishes</text>
</g>
<!-- /autodrive/roboracer_1/steering_command -->
<g id="node5" class="node">
<title>/autodrive/roboracer_1/steering_command</title>
<ellipse fill="lightgreen" stroke="black" cx="1229.62" cy="-393.05" rx="225.04" ry="30.05"/>
<text text-anchor="middle" x="1229.62" y="-397" font-family="Times,serif" font-size="14.00">/autodrive/roboracer_1/steering_command</text>
<text text-anchor="middle" x="1229.62" y="-379.75" font-family="Times,serif" font-size="14.00">[std_msgs/msg/Float32]</text>
</g>
<!-- control&#45;&gt;/autodrive/roboracer_1/steering_command -->
<g id="edge19" class="edge">
<title>control&#45;&gt;/autodrive/roboracer_1/steering_command</title>
<path fill="none" stroke="black" d="M869.13,-393.05C899.15,-393.05 944.5,-393.05 992.97,-393.05"/>
<polygon fill="black" stroke="black" points="992.83,-396.55 1002.83,-393.05 992.83,-389.55 992.83,-396.55"/>
<text text-anchor="middle" x="936.71" y="-397" font-family="Times,serif" font-size="14.00">publishes</text>
</g>
<!-- /autodrive_bridge -->
<g id="node6" class="node">
<title>/autodrive_bridge</title>
<polygon fill="lightyellow" stroke="black" points="1761.65,-558.3 1590.4,-558.3 1590.4,-515.8 1761.65,-515.8 1761.65,-558.3"/>
<text text-anchor="middle" x="1676.03" y="-541" font-family="Times,serif" font-size="14.00">/autodrive_bridge</text>
<text text-anchor="middle" x="1676.03" y="-523.75" font-family="Times,serif" font-size="14.00">(autodrive_roboracer)</text>
</g>
<!-- /autodrive/roboracer_1/throttle_command&#45;&gt;/autodrive_bridge -->
<g id="edge18" class="edge">
<title>/autodrive/roboracer_1/throttle_command&#45;&gt;/autodrive_bridge</title>
<path fill="none" stroke="black" d="M1381.08,-493.4C1446.47,-503.11 1521.15,-514.2 1578.87,-522.77"/>
<polygon fill="black" stroke="black" points="1578.28,-526.22 1588.68,-524.23 1579.31,-519.3 1578.28,-526.22"/>
<text text-anchor="middle" x="1522.53" y="-525.05" font-family="Times,serif" font-size="14.00">subscribed by</text>
</g>
<!-- /autodrive/roboracer_1/steering_command&#45;&gt;/autodrive_bridge -->
<g id="edge20" class="edge">
<title>/autodrive/roboracer_1/steering_command&#45;&gt;/autodrive_bridge</title>
<path fill="none" stroke="black" d="M1392.8,-414.06C1416.5,-418.93 1440.4,-424.85 1462.65,-432.05 1523.03,-451.58 1587.77,-485.71 1629.68,-509.74"/>
<polygon fill="black" stroke="black" points="1627.85,-512.73 1638.26,-514.71 1631.36,-506.67 1627.85,-512.73"/>
<text text-anchor="middle" x="1522.53" y="-481.36" font-family="Times,serif" font-size="14.00">subscribed by</text>
</g>
<!-- /autodrive_bridge__tf_broadcaster -->
<g id="node7" class="node">
<title>/autodrive_bridge__tf_broadcaster</title>
<ellipse fill="lightsalmon" stroke="black" cx="2069.73" cy="-950.05" rx="61.7" ry="13.61"/>
<text text-anchor="middle" x="2069.73" y="-947.13" font-family="Times,serif" font-size="9.00">TF Broadcaster</text>
</g>
<!-- /autodrive_bridge&#45;&gt;/autodrive_bridge__tf_broadcaster -->
<g id="edge1" class="edge">
<title>/autodrive_bridge&#45;&gt;/autodrive_bridge__tf_broadcaster</title>
<path fill="none" stroke="grey" stroke-width="0.5" d="M1679.35,-558.72C1686.15,-613.84 1710.14,-762.06 1779.65,-861.05 1807.39,-900.56 1821.13,-909.01 1865.9,-927.05 1911.26,-945.33 1966.66,-950.59 2008.09,-951.55"/>
</g>
<!-- /autodrive/roboracer_1/throttle -->
<g id="node8" class="node">
<title>/autodrive/roboracer_1/throttle</title>
<ellipse fill="lightgreen" stroke="black" cx="2069.73" cy="-888.05" rx="168.29" ry="30.05"/>
<text text-anchor="middle" x="2069.73" y="-892" font-family="Times,serif" font-size="14.00">/autodrive/roboracer_1/throttle</text>
<text text-anchor="middle" x="2069.73" y="-874.75" font-family="Times,serif" font-size="14.00">[std_msgs/msg/Float32]</text>
</g>
<!-- /autodrive_bridge&#45;&gt;/autodrive/roboracer_1/throttle -->
<g id="edge2" class="edge">
<title>/autodrive_bridge&#45;&gt;/autodrive/roboracer_1/throttle</title>
<path fill="none" stroke="black" d="M1682.13,-558.48C1693.61,-603.36 1724.82,-709.02 1779.65,-781.05 1809.22,-819.89 1821.51,-828.76 1865.9,-849.05 1882.87,-856.81 1901.33,-863.03 1919.95,-868.01"/>
<polygon fill="black" stroke="black" points="1918.91,-871.35 1929.47,-870.42 1920.64,-864.57 1918.91,-871.35"/>
<text text-anchor="middle" x="1813.78" y="-843.97" font-family="Times,serif" font-size="14.00">publishes</text>
</g>
<!-- /autodrive/roboracer_1/steering -->
<g id="node9" class="node">
<title>/autodrive/roboracer_1/steering</title>
<ellipse fill="lightgreen" stroke="black" cx="2069.73" cy="-810.05" rx="171.47" ry="30.05"/>
<text text-anchor="middle" x="2069.73" y="-814" font-family="Times,serif" font-size="14.00">/autodrive/roboracer_1/steering</text>
<text text-anchor="middle" x="2069.73" y="-796.75" font-family="Times,serif" font-size="14.00">[std_msgs/msg/Float32]</text>
</g>
<!-- /autodrive_bridge&#45;&gt;/autodrive/roboracer_1/steering -->
<g id="edge3" class="edge">
<title>/autodrive_bridge&#45;&gt;/autodrive/roboracer_1/steering</title>
<path fill="none" stroke="black" d="M1686.22,-558.77C1708.46,-608.05 1770.47,-727.42 1865.9,-771.05 1882.46,-778.62 1900.42,-784.72 1918.58,-789.63"/>
<polygon fill="black" stroke="black" points="1917.57,-792.99 1928.12,-792.09 1919.31,-786.21 1917.57,-792.99"/>
<text text-anchor="middle" x="1813.78" y="-763.74" font-family="Times,serif" font-size="14.00">publishes</text>
</g>
<!-- /autodrive/roboracer_1/left_encoder -->
<g id="node10" class="node">
<title>/autodrive/roboracer_1/left_encoder</title>
<ellipse fill="lightgreen" stroke="black" cx="2069.73" cy="-732.05" rx="191.63" ry="30.05"/>
<text text-anchor="middle" x="2069.73" y="-736" font-family="Times,serif" font-size="14.00">/autodrive/roboracer_1/left_encoder</text>
<text text-anchor="middle" x="2069.73" y="-718.75" font-family="Times,serif" font-size="14.00">[sensor_msgs/msg/JointState]</text>
</g>
<!-- /autodrive_bridge&#45;&gt;/autodrive/roboracer_1/left_encoder -->
<g id="edge4" class="edge">
<title>/autodrive_bridge&#45;&gt;/autodrive/roboracer_1/left_encoder</title>
<path fill="none" stroke="black" d="M1695.4,-558.59C1726.53,-593.44 1793.37,-661.49 1865.9,-693.05 1880.81,-699.54 1896.79,-704.95 1913,-709.46"/>
<polygon fill="black" stroke="black" points="1911.65,-712.72 1922.22,-711.91 1913.45,-705.96 1911.65,-712.72"/>
<text text-anchor="middle" x="1813.78" y="-685.34" font-family="Times,serif" font-size="14.00">publishes</text>
</g>
<!-- /autodrive/roboracer_1/right_encoder -->
<g id="node11" class="node">
<title>/autodrive/roboracer_1/right_encoder</title>
<ellipse fill="lightgreen" stroke="black" cx="2069.73" cy="-654.05" rx="199.58" ry="30.05"/>
<text text-anchor="middle" x="2069.73" y="-658" font-family="Times,serif" font-size="14.00">/autodrive/roboracer_1/right_encoder</text>
<text text-anchor="middle" x="2069.73" y="-640.75" font-family="Times,serif" font-size="14.00">[sensor_msgs/msg/JointState]</text>
</g>
<!-- /autodrive_bridge&#45;&gt;/autodrive/roboracer_1/right_encoder -->
<g id="edge5" class="edge">
<title>/autodrive_bridge&#45;&gt;/autodrive/roboracer_1/right_encoder</title>
<path fill="none" stroke="black" d="M1722.27,-558.77C1759.96,-576.12 1815.43,-599.95 1865.9,-615.05 1883.78,-620.4 1902.77,-625.19 1921.68,-629.42"/>
<polygon fill="black" stroke="black" points="1920.8,-632.81 1931.32,-631.52 1922.29,-625.97 1920.8,-632.81"/>
<text text-anchor="middle" x="1813.78" y="-612.29" font-family="Times,serif" font-size="14.00">publishes</text>
</g>
<!-- /autodrive/roboracer_1/ips -->
<g id="node12" class="node">
<title>/autodrive/roboracer_1/ips</title>
<ellipse fill="lightgreen" stroke="black" cx="2069.73" cy="-576.05" rx="151.85" ry="30.05"/>
<text text-anchor="middle" x="2069.73" y="-580" font-family="Times,serif" font-size="14.00">/autodrive/roboracer_1/ips</text>
<text text-anchor="middle" x="2069.73" y="-562.75" font-family="Times,serif" font-size="14.00">[geometry_msgs/msg/Point]</text>
</g>
<!-- /autodrive_bridge&#45;&gt;/autodrive/roboracer_1/ips -->
<g id="edge6" class="edge">
<title>/autodrive_bridge&#45;&gt;/autodrive/roboracer_1/ips</title>
<path fill="none" stroke="black" d="M1762.02,-545.51C1808.66,-550.16 1867.79,-556.05 1921.67,-561.41"/>
<polygon fill="black" stroke="black" points="1921.28,-564.89 1931.57,-562.4 1921.97,-557.92 1921.28,-564.89"/>
<text text-anchor="middle" x="1813.78" y="-557.01" font-family="Times,serif" font-size="14.00">publishes</text>
</g>
<!-- /autodrive/roboracer_1/imu -->
<g id="node13" class="node">
<title>/autodrive/roboracer_1/imu</title>
<ellipse fill="lightgreen" stroke="black" cx="2069.73" cy="-498.05" rx="148.67" ry="30.05"/>
<text text-anchor="middle" x="2069.73" y="-502" font-family="Times,serif" font-size="14.00">/autodrive/roboracer_1/imu</text>
<text text-anchor="middle" x="2069.73" y="-484.75" font-family="Times,serif" font-size="14.00">[sensor_msgs/msg/Imu]</text>
</g>
<!-- /autodrive_bridge&#45;&gt;/autodrive/roboracer_1/imu -->
<g id="edge7" class="edge">
<title>/autodrive_bridge&#45;&gt;/autodrive/roboracer_1/imu</title>
<path fill="none" stroke="black" d="M1762.14,-527.63C1768.07,-527 1773.95,-526.39 1779.65,-525.8 1826.22,-521.02 1877.03,-516.05 1922.88,-511.67"/>
<polygon fill="black" stroke="black" points="1922.99,-515.17 1932.61,-510.74 1922.33,-508.2 1922.99,-515.17"/>
<text text-anchor="middle" x="1813.78" y="-529.75" font-family="Times,serif" font-size="14.00">publishes</text>
</g>
<!-- /autodrive/roboracer_1/odom -->
<g id="node14" class="node">
<title>/autodrive/roboracer_1/odom</title>
<ellipse fill="lightgreen" stroke="black" cx="2069.73" cy="-420.05" rx="157.15" ry="30.05"/>
<text text-anchor="middle" x="2069.73" y="-424" font-family="Times,serif" font-size="14.00">/autodrive/roboracer_1/odom</text>
<text text-anchor="middle" x="2069.73" y="-406.75" font-family="Times,serif" font-size="14.00">[nav_msgs/msg/Odometry]</text>
</g>
<!-- /autodrive_bridge&#45;&gt;/autodrive/roboracer_1/odom -->
<g id="edge8" class="edge">
<title>/autodrive_bridge&#45;&gt;/autodrive/roboracer_1/odom</title>
<path fill="none" stroke="black" d="M1722.27,-515.33C1759.96,-497.98 1815.43,-474.16 1865.9,-459.05 1888.37,-452.33 1912.59,-446.5 1936.21,-441.54"/>
<polygon fill="black" stroke="black" points="1936.8,-444.99 1945.89,-439.55 1935.39,-438.13 1936.8,-444.99"/>
<text text-anchor="middle" x="1813.78" y="-493.41" font-family="Times,serif" font-size="14.00">publishes</text>
</g>
<!-- /autodrive/roboracer_1/lidar -->
<g id="node15" class="node">
<title>/autodrive/roboracer_1/lidar</title>
<ellipse fill="lightgreen" stroke="black" cx="2069.73" cy="-30.05" rx="163.52" ry="30.05"/>
<text text-anchor="middle" x="2069.73" y="-34" font-family="Times,serif" font-size="14.00">/autodrive/roboracer_1/lidar</text>
<text text-anchor="middle" x="2069.73" y="-16.75" font-family="Times,serif" font-size="14.00">[sensor_msgs/msg/LaserScan]</text>
</g>
<!-- /autodrive_bridge&#45;&gt;/autodrive/roboracer_1/lidar -->
<g id="edge9" class="edge">
<title>/autodrive_bridge&#45;&gt;/autodrive/roboracer_1/lidar</title>
<path fill="none" stroke="black" d="M1677.61,-515.36C1680.28,-451.42 1695.3,-260.33 1779.65,-133.8 1810.3,-87.83 1863.49,-62.08 1915.96,-47.71"/>
<polygon fill="black" stroke="black" points="1916.52,-51.18 1925.32,-45.28 1914.76,-44.4 1916.52,-51.18"/>
<text text-anchor="middle" x="1813.78" y="-137.75" font-family="Times,serif" font-size="14.00">publishes</text>
</g>
<!-- /autodrive/roboracer_1/front_camera -->
<g id="node16" class="node">
<title>/autodrive/roboracer_1/front_camera</title>
<ellipse fill="lightgreen" stroke="black" cx="2069.73" cy="-342.05" rx="196.4" ry="30.05"/>
<text text-anchor="middle" x="2069.73" y="-346" font-family="Times,serif" font-size="14.00">/autodrive/roboracer_1/front_camera</text>
<text text-anchor="middle" x="2069.73" y="-328.75" font-family="Times,serif" font-size="14.00">[sensor_msgs/msg/Image]</text>
</g>
<!-- /autodrive_bridge&#45;&gt;/autodrive/roboracer_1/front_camera -->
<g id="edge11" class="edge">
<title>/autodrive_bridge&#45;&gt;/autodrive/roboracer_1/front_camera</title>
<path fill="none" stroke="black" d="M1695.42,-515.56C1726.58,-480.78 1793.46,-412.82 1865.9,-381.05 1880.18,-374.79 1895.45,-369.53 1910.98,-365.12"/>
<polygon fill="black" stroke="black" points="1911.56,-368.59 1920.29,-362.59 1909.73,-361.83 1911.56,-368.59"/>
<text text-anchor="middle" x="1813.78" y="-437.98" font-family="Times,serif" font-size="14.00">publishes</text>
</g>
<!-- /autodrive/roboracer_1/lap_count -->
<g id="node17" class="node">
<title>/autodrive/roboracer_1/lap_count</title>
<ellipse fill="lightgreen" stroke="black" cx="2069.73" cy="-264.05" rx="177.84" ry="30.05"/>
<text text-anchor="middle" x="2069.73" y="-268" font-family="Times,serif" font-size="14.00">/autodrive/roboracer_1/lap_count</text>
<text text-anchor="middle" x="2069.73" y="-250.75" font-family="Times,serif" font-size="14.00">[std_msgs/msg/Int32]</text>
</g>
<!-- /autodrive_bridge&#45;&gt;/autodrive/roboracer_1/lap_count -->
<g id="edge12" class="edge">
<title>/autodrive_bridge&#45;&gt;/autodrive/roboracer_1/lap_count</title>
<path fill="none" stroke="black" d="M1686.24,-515.37C1708.51,-466.16 1770.58,-346.94 1865.9,-303.05 1881.68,-295.79 1898.75,-289.88 1916.06,-285.06"/>
<polygon fill="black" stroke="black" points="1916.62,-288.54 1925.4,-282.6 1914.83,-281.77 1916.62,-288.54"/>
<text text-anchor="middle" x="1813.78" y="-370.11" font-family="Times,serif" font-size="14.00">publishes</text>
</g>
<!-- /autodrive/roboracer_1/lap_time -->
<g id="node18" class="node">
<title>/autodrive/roboracer_1/lap_time</title>
<ellipse fill="lightgreen" stroke="black" cx="2069.73" cy="-186.05" rx="172.53" ry="30.05"/>
<text text-anchor="middle" x="2069.73" y="-190" font-family="Times,serif" font-size="14.00">/autodrive/roboracer_1/lap_time</text>
<text text-anchor="middle" x="2069.73" y="-172.75" font-family="Times,serif" font-size="14.00">[std_msgs/msg/Float32]</text>
</g>
<!-- /autodrive_bridge&#45;&gt;/autodrive/roboracer_1/lap_time -->
<g id="edge13" class="edge">
<title>/autodrive_bridge&#45;&gt;/autodrive/roboracer_1/lap_time</title>
<path fill="none" stroke="black" d="M1682.12,-515.59C1693.56,-470.66 1724.72,-364.86 1779.65,-292.8 1809.21,-254.04 1821.55,-245.28 1865.9,-225.05 1882.33,-217.56 1900.13,-211.51 1918.14,-206.62"/>
<polygon fill="black" stroke="black" points="1918.79,-210.07 1927.6,-204.18 1917.04,-203.29 1918.79,-210.07"/>
<text text-anchor="middle" x="1813.78" y="-296.75" font-family="Times,serif" font-size="14.00">publishes</text>
</g>
<!-- /autodrive/roboracer_1/last_lap_time -->
<g id="node19" class="node">
<title>/autodrive/roboracer_1/last_lap_time</title>
<ellipse fill="lightgreen" stroke="black" cx="2069.73" cy="-108.05" rx="195.87" ry="30.05"/>
<text text-anchor="middle" x="2069.73" y="-112" font-family="Times,serif" font-size="14.00">/autodrive/roboracer_1/last_lap_time</text>
<text text-anchor="middle" x="2069.73" y="-94.75" font-family="Times,serif" font-size="14.00">[std_msgs/msg/Float32]</text>
</g>
<!-- /autodrive_bridge&#45;&gt;/autodrive/roboracer_1/last_lap_time -->
<g id="edge14" class="edge">
<title>/autodrive_bridge&#45;&gt;/autodrive/roboracer_1/last_lap_time</title>
<path fill="none" stroke="black" d="M1679.33,-515.36C1686.1,-460.17 1710.02,-311.81 1779.65,-212.8 1809.2,-170.79 1857.38,-145.56 1906.01,-130.43"/>
<polygon fill="black" stroke="black" points="1906.99,-133.79 1915.59,-127.6 1905,-127.08 1906.99,-133.79"/>
<text text-anchor="middle" x="1813.78" y="-216.75" font-family="Times,serif" font-size="14.00">publishes</text>
</g>
<!-- /autodrive/roboracer_1/best_lap_time -->
<g id="node20" class="node">
<title>/autodrive/roboracer_1/best_lap_time</title>
<ellipse fill="lightgreen" stroke="black" cx="2069.73" cy="-1090.05" rx="199.05" ry="30.05"/>
<text text-anchor="middle" x="2069.73" y="-1094" font-family="Times,serif" font-size="14.00">/autodrive/roboracer_1/best_lap_time</text>
<text text-anchor="middle" x="2069.73" y="-1076.75" font-family="Times,serif" font-size="14.00">[std_msgs/msg/Float32]</text>
</g>
<!-- /autodrive_bridge&#45;&gt;/autodrive/roboracer_1/best_lap_time -->
<g id="edge15" class="edge">
<title>/autodrive_bridge&#45;&gt;/autodrive/roboracer_1/best_lap_time</title>
<path fill="none" stroke="black" d="M1676.96,-558.62C1677.73,-626.89 1687.74,-842.09 1779.65,-985.05 1806.97,-1027.54 1853.57,-1052.96 1901.47,-1068.13"/>
<polygon fill="black" stroke="black" points="1900.32,-1071.44 1910.9,-1070.97 1902.33,-1064.74 1900.32,-1071.44"/>
<text text-anchor="middle" x="1813.78" y="-1048.18" font-family="Times,serif" font-size="14.00">publishes</text>
</g>
<!-- /autodrive/roboracer_1/collision_count -->
<g id="node21" class="node">
<title>/autodrive/roboracer_1/collision_count</title>
<ellipse fill="lightgreen" stroke="black" cx="2069.73" cy="-1012.05" rx="203.82" ry="30.05"/>
<text text-anchor="middle" x="2069.73" y="-1016" font-family="Times,serif" font-size="14.00">/autodrive/roboracer_1/collision_count</text>
<text text-anchor="middle" x="2069.73" y="-998.75" font-family="Times,serif" font-size="14.00">[std_msgs/msg/Int32]</text>
</g>
<!-- /autodrive_bridge&#45;&gt;/autodrive/roboracer_1/collision_count -->
<g id="edge16" class="edge">
<title>/autodrive_bridge&#45;&gt;/autodrive/roboracer_1/collision_count</title>
<path fill="none" stroke="black" d="M1678.46,-558.39C1683.34,-617.91 1703.56,-789 1779.65,-904.05 1808.15,-947.14 1856.19,-973.09 1905.01,-988.7"/>
<polygon fill="black" stroke="black" points="1903.73,-991.97 1914.32,-991.53 1905.77,-985.27 1903.73,-991.97"/>
<text text-anchor="middle" x="1813.78" y="-967.32" font-family="Times,serif" font-size="14.00">publishes</text>
</g>
<!-- /autodrive/roboracer_1/lidar&#45;&gt;perception -->
<g id="edge10" class="edge">
<title>/autodrive/roboracer_1/lidar&#45;&gt;perception</title>
<path fill="none" stroke="black" d="M1906.26,-31.25C1835.8,-31.68 1752.34,-32.05 1677.03,-32.05 434.67,-32.05 434.67,-32.05 434.67,-32.05 291.95,-32.05 151.76,-148.58 92.6,-204.63"/>
<polygon fill="black" stroke="black" points="90.34,-201.94 85.56,-211.39 95.19,-206.98 90.34,-201.94"/>
<text text-anchor="middle" x="936.71" y="-36" font-family="Times,serif" font-size="14.00">subscribed by</text>
</g>
<!-- /autodrive/reset_command -->
<g id="node22" class="node">
<title>/autodrive/reset_command</title>
<ellipse fill="lightgreen" stroke="black" cx="1229.62" cy="-572.05" rx="145.49" ry="30.05"/>
<text text-anchor="middle" x="1229.62" y="-576" font-family="Times,serif" font-size="14.00">/autodrive/reset_command</text>
<text text-anchor="middle" x="1229.62" y="-558.75" font-family="Times,serif" font-size="14.00">[std_msgs/msg/Bool]</text>
</g>
<!-- /autodrive/reset_command&#45;&gt;/autodrive_bridge -->
<g id="edge21" class="edge">
<title>/autodrive/reset_command&#45;&gt;/autodrive_bridge</title>
<path fill="none" stroke="black" d="M1366.37,-561.36C1434.98,-555.96 1516.61,-549.53 1578.69,-544.64"/>
<polygon fill="black" stroke="black" points="1578.84,-548.14 1588.54,-543.86 1578.29,-541.16 1578.84,-548.14"/>
<text text-anchor="middle" x="1522.53" y="-556.41" font-family="Times,serif" font-size="14.00">subscribed by</text>
</g>
</g>
</svg>
