<?xml version="1.0" encoding="UTF-8" standalone="no"?>
<!DOCTYPE svg PUBLIC "-//W3C//DTD SVG 1.1//EN"
 "http://www.w3.org/Graphics/SVG/1.1/DTD/svg11.dtd">
<!-- Generated by graphviz version 12.2.1 (20250203.1708)
 -->
<!-- Title: ROS2Group_perception Pages: 1 -->
<svg width="1240pt" height="228pt"
 viewBox="0.00 0.00 1240.37 228.25" xmlns="http://www.w3.org/2000/svg" xmlns:xlink="http://www.w3.org/1999/xlink">
<g id="graph0" class="graph" transform="scale(1 1) rotate(0) translate(4 224.25)">
<title>ROS2Group_perception</title>
<polygon fill="white" stroke="none" points="-4,4 -4,-224.25 1236.37,-224.25 1236.37,4 -4,4"/>
<text text-anchor="middle" x="616.18" y="-202.95" font-family="Times,serif" font-size="14.00">Group: perception</text>
<g id="clust1" class="cluster">
<title>cluster_perception</title>
<polygon fill="lightgrey" stroke="black" points="454.79,-8 454.79,-187 1224.37,-187 1224.37,-8 454.79,-8"/>
<text text-anchor="middle" x="839.58" y="-169.7" font-family="Times,serif" font-size="14.00">perception</text>
</g>
<!-- /perception/wall_extractor -->
<g id="node1" class="node">
<title>/perception/wall_extractor</title>
<polygon fill="lightblue" stroke="black" points="666.29,-96.25 462.79,-96.25 462.79,-53.75 666.29,-53.75 666.29,-96.25"/>
<text text-anchor="middle" x="564.54" y="-78.95" font-family="Times,serif" font-size="14.00">/perception/wall_extractor</text>
<text text-anchor="middle" x="564.54" y="-61.7" font-family="Times,serif" font-size="14.00">(perception)</text>
</g>
<!-- /perception/walls -->
<g id="node2" class="node">
<title>/perception/walls</title>
<ellipse fill="lightgreen" stroke="black" cx="993.45" cy="-46" rx="222.92" ry="30.05"/>
<text text-anchor="middle" x="993.45" y="-49.95" font-family="Times,serif" font-size="14.00">/perception/walls</text>
<text text-anchor="middle" x="993.45" y="-32.7" font-family="Times,serif" font-size="14.00">[racer_interfaces/msg/WallSegmentArray]</text>
</g>
<!-- /perception/wall_extractor&#45;&gt;/perception/walls -->
<g id="edge1" class="edge">
<title>/perception/wall_extractor&#45;&gt;/perception/walls</title>
<path fill="none" stroke="black" d="M666.71,-68.13C701.53,-65.76 741.93,-63.02 782.17,-60.28"/>
<polygon fill="black" stroke="black" points="782.26,-63.79 792,-59.62 781.79,-56.8 782.26,-63.79"/>
<text text-anchor="middle" x="718.41" y="-70.38" font-family="Times,serif" font-size="14.00">publishes</text>
</g>
<!-- /perception/debug/walls -->
<g id="node3" class="node">
<title>/perception/debug/walls</title>
<ellipse fill="lightgreen" stroke="black" cx="993.45" cy="-124" rx="206.48" ry="30.05"/>
<text text-anchor="middle" x="993.45" y="-127.95" font-family="Times,serif" font-size="14.00">/perception/debug/walls</text>
<text text-anchor="middle" x="993.45" y="-110.7" font-family="Times,serif" font-size="14.00">[visualization_msgs/msg/MarkerArray]</text>
</g>
<!-- /perception/wall_extractor&#45;&gt;/perception/debug/walls -->
<g id="edge2" class="edge">
<title>/perception/wall_extractor&#45;&gt;/perception/debug/walls</title>
<path fill="none" stroke="black" d="M666.71,-86.61C712.08,-91.82 766.91,-98.11 818.54,-104.04"/>
<polygon fill="black" stroke="black" points="818.01,-107.5 828.34,-105.16 818.81,-100.55 818.01,-107.5"/>
<text text-anchor="middle" x="718.41" y="-99.06" font-family="Times,serif" font-size="14.00">publishes</text>
</g>
<!-- /autodrive/roboracer_1/lidar -->
<g id="node4" class="node">
<title>/autodrive/roboracer_1/lidar</title>
<ellipse fill="lightgreen" stroke="black" cx="163.52" cy="-75" rx="163.52" ry="30.05"/>
<text text-anchor="middle" x="163.52" y="-78.95" font-family="Times,serif" font-size="14.00">/autodrive/roboracer_1/lidar</text>
<text text-anchor="middle" x="163.52" y="-61.7" font-family="Times,serif" font-size="14.00">[sensor_msgs/msg/LaserScan]</text>
</g>
<!-- /autodrive/roboracer_1/lidar&#45;&gt;/perception/wall_extractor -->
<g id="edge3" class="edge">
<title>/autodrive/roboracer_1/lidar&#45;&gt;/perception/wall_extractor</title>
<path fill="none" stroke="black" d="M327.39,-75C368.97,-75 412.75,-75 451.16,-75"/>
<polygon fill="black" stroke="black" points="450.86,-78.5 460.86,-75 450.86,-71.5 450.86,-78.5"/>
<text text-anchor="middle" x="394.91" y="-78.95" font-family="Times,serif" font-size="14.00">subscribed by</text>
</g>
</g>
</svg>
