<?xml version="1.0" encoding="UTF-8" standalone="no"?>
<!DOCTYPE svg PUBLIC "-//W3C//DTD SVG 1.1//EN"
 "http://www.w3.org/Graphics/SVG/1.1/DTD/svg11.dtd">
<!-- Generated by graphviz version 12.2.1 (20250203.1708)
 -->
<!-- Title: ROS2Graph Pages: 1 -->
<svg width="1293pt" height="1185pt"
 viewBox="0.00 0.00 1292.97 1185.00" xmlns="http://www.w3.org/2000/svg" xmlns:xlink="http://www.w3.org/1999/xlink">
<g id="graph0" class="graph" transform="scale(1 1) rotate(0) translate(4 1181)">
<title>ROS2Graph</title>
<polygon fill="white" stroke="none" points="-4,4 -4,-1181 1288.97,-1181 1288.97,4 -4,4"/>
<g id="clust1" class="cluster">
<title>cluster__autodrive_bridge</title>
<polygon fill="lightgrey" stroke="black" points="577.82,-8 577.82,-1169 1276.97,-1169 1276.97,-8 577.82,-8"/>
<text text-anchor="middle" x="927.4" y="-1151.7" font-family="Times,serif" font-size="14.00">/autodrive_bridge</text>
</g>
<!-- /autodrive_bridge -->
<g id="node1" class="node">
<title>/autodrive_bridge</title>
<polygon fill="lightblue" stroke="black" points="757.07,-613.25 585.82,-613.25 585.82,-570.75 757.07,-570.75 757.07,-613.25"/>
<text text-anchor="middle" x="671.45" y="-595.95" font-family="Times,serif" font-size="14.00">/autodrive_bridge</text>
<text text-anchor="middle" x="671.45" y="-578.7" font-family="Times,serif" font-size="14.00">(autodrive_roboracer)</text>
</g>
<!-- /autodrive/roboracer_1/throttle -->
<g id="node2" class="node">
<title>/autodrive/roboracer_1/throttle</title>
<ellipse fill="lightgreen" stroke="black" cx="1065.15" cy="-46" rx="168.29" ry="30.05"/>
<text text-anchor="middle" x="1065.15" y="-49.95" font-family="Times,serif" font-size="14.00">/autodrive/roboracer_1/throttle</text>
<text text-anchor="middle" x="1065.15" y="-32.7" font-family="Times,serif" font-size="14.00">[std_msgs/msg/Float32]</text>
</g>
<!-- /autodrive_bridge&#45;&gt;/autodrive/roboracer_1/throttle -->
<g id="edge2" class="edge">
<title>/autodrive_bridge&#45;&gt;/autodrive/roboracer_1/throttle</title>
<path fill="none" stroke="black" d="M672.47,-570.27C673.52,-502.48 684.32,-291.1 775.07,-150.75 804.7,-104.93 856.77,-79 908.62,-64.38"/>
<polygon fill="black" stroke="black" points="909.45,-67.78 918.21,-61.82 907.65,-61.02 909.45,-67.78"/>
<text text-anchor="middle" x="809.2" y="-154.7" font-family="Times,serif" font-size="14.00">publishes</text>
</g>
<!-- /autodrive/roboracer_1/steering -->
<g id="node3" class="node">
<title>/autodrive/roboracer_1/steering</title>
<ellipse fill="lightgreen" stroke="black" cx="1065.15" cy="-124" rx="171.47" ry="30.05"/>
<text text-anchor="middle" x="1065.15" y="-127.95" font-family="Times,serif" font-size="14.00">/autodrive/roboracer_1/steering</text>
<text text-anchor="middle" x="1065.15" y="-110.7" font-family="Times,serif" font-size="14.00">[std_msgs/msg/Float32]</text>
</g>
<!-- /autodrive_bridge&#45;&gt;/autodrive/roboracer_1/steering -->
<g id="edge3" class="edge">
<title>/autodrive_bridge&#45;&gt;/autodrive/roboracer_1/steering</title>
<path fill="none" stroke="black" d="M674.11,-570.29C679.51,-511.3 700.81,-345 775.07,-232.75 802.28,-191.64 816.62,-183.78 861.32,-163 877.69,-155.39 895.47,-149.27 913.46,-144.34"/>
<polygon fill="black" stroke="black" points="914.11,-147.79 922.91,-141.88 912.35,-141.01 914.11,-147.79"/>
<text text-anchor="middle" x="809.2" y="-236.7" font-family="Times,serif" font-size="14.00">publishes</text>
</g>
<!-- /autodrive/roboracer_1/left_encoder -->
<g id="node4" class="node">
<title>/autodrive/roboracer_1/left_encoder</title>
<ellipse fill="lightgreen" stroke="black" cx="1065.15" cy="-202" rx="191.63" ry="30.05"/>
<text text-anchor="middle" x="1065.15" y="-205.95" font-family="Times,serif" font-size="14.00">/autodrive/roboracer_1/left_encoder</text>
<text text-anchor="middle" x="1065.15" y="-188.7" font-family="Times,serif" font-size="14.00">[sensor_msgs/msg/JointState]</text>
</g>
<!-- /autodrive_bridge&#45;&gt;/autodrive/roboracer_1/left_encoder -->
<g id="edge4" class="edge">
<title>/autodrive_bridge&#45;&gt;/autodrive/roboracer_1/left_encoder</title>
<path fill="none" stroke="black" d="M675.9,-570.35C684.8,-519.9 712.39,-392.29 775.07,-306.75 805.94,-264.63 855.42,-239.41 904.79,-224.31"/>
<polygon fill="black" stroke="black" points="905.58,-227.73 914.2,-221.58 903.62,-221.01 905.58,-227.73"/>
<text text-anchor="middle" x="809.2" y="-310.7" font-family="Times,serif" font-size="14.00">publishes</text>
</g>
<!-- /autodrive/roboracer_1/right_encoder -->
<g id="node5" class="node">
<title>/autodrive/roboracer_1/right_encoder</title>
<ellipse fill="lightgreen" stroke="black" cx="1065.15" cy="-280" rx="199.58" ry="30.05"/>
<text text-anchor="middle" x="1065.15" y="-283.95" font-family="Times,serif" font-size="14.00">/autodrive/roboracer_1/right_encoder</text>
<text text-anchor="middle" x="1065.15" y="-266.7" font-family="Times,serif" font-size="14.00">[sensor_msgs/msg/JointState]</text>
</g>
<!-- /autodrive_bridge&#45;&gt;/autodrive/roboracer_1/right_encoder -->
<g id="edge5" class="edge">
<title>/autodrive_bridge&#45;&gt;/autodrive/roboracer_1/right_encoder</title>
<path fill="none" stroke="black" d="M679.57,-570.29C693.35,-530.55 726.63,-444.81 775.07,-385.75 805.81,-348.27 817.15,-338.96 861.32,-319 875,-312.82 889.62,-307.62 904.52,-303.25"/>
<polygon fill="black" stroke="black" points="905.25,-306.67 913.94,-300.61 903.37,-299.93 905.25,-306.67"/>
<text text-anchor="middle" x="809.2" y="-389.7" font-family="Times,serif" font-size="14.00">publishes</text>
</g>
<!-- /autodrive/roboracer_1/ips -->
<g id="node6" class="node">
<title>/autodrive/roboracer_1/ips</title>
<ellipse fill="lightgreen" stroke="black" cx="1065.15" cy="-358" rx="151.85" ry="30.05"/>
<text text-anchor="middle" x="1065.15" y="-361.95" font-family="Times,serif" font-size="14.00">/autodrive/roboracer_1/ips</text>
<text text-anchor="middle" x="1065.15" y="-344.7" font-family="Times,serif" font-size="14.00">[geometry_msgs/msg/Point]</text>
</g>
<!-- /autodrive_bridge&#45;&gt;/autodrive/roboracer_1/ips -->
<g id="edge6" class="edge">
<title>/autodrive_bridge&#45;&gt;/autodrive/roboracer_1/ips</title>
<path fill="none" stroke="black" d="M685.22,-570.45C711.75,-528.03 777.43,-434.53 861.32,-397 880.76,-388.3 902.1,-381.54 923.41,-376.29"/>
<polygon fill="black" stroke="black" points="924.13,-379.71 933.07,-374.02 922.53,-372.9 924.13,-379.71"/>
<text text-anchor="middle" x="809.2" y="-459.71" font-family="Times,serif" font-size="14.00">publishes</text>
</g>
<!-- /autodrive/roboracer_1/imu -->
<g id="node7" class="node">
<title>/autodrive/roboracer_1/imu</title>
<ellipse fill="lightgreen" stroke="black" cx="1065.15" cy="-436" rx="148.67" ry="30.05"/>
<text text-anchor="middle" x="1065.15" y="-439.95" font-family="Times,serif" font-size="14.00">/autodrive/roboracer_1/imu</text>
<text text-anchor="middle" x="1065.15" y="-422.7" font-family="Times,serif" font-size="14.00">[sensor_msgs/msg/Imu]</text>
</g>
<!-- /autodrive_bridge&#45;&gt;/autodrive/roboracer_1/imu -->
<g id="edge7" class="edge">
<title>/autodrive_bridge&#45;&gt;/autodrive/roboracer_1/imu</title>
<path fill="none" stroke="black" d="M700.15,-570.27C735.51,-543.65 799.52,-499.13 861.32,-475 882.56,-466.71 905.77,-460.13 928.65,-454.92"/>
<polygon fill="black" stroke="black" points="929.35,-458.35 938.37,-452.8 927.85,-451.51 929.35,-458.35"/>
<text text-anchor="middle" x="809.2" y="-520.06" font-family="Times,serif" font-size="14.00">publishes</text>
</g>
<!-- /autodrive/roboracer_1/odom -->
<g id="node8" class="node">
<title>/autodrive/roboracer_1/odom</title>
<ellipse fill="lightgreen" stroke="black" cx="1065.15" cy="-514" rx="157.15" ry="30.05"/>
<text text-anchor="middle" x="1065.15" y="-517.95" font-family="Times,serif" font-size="14.00">/autodrive/roboracer_1/odom</text>
<text text-anchor="middle" x="1065.15" y="-500.7" font-family="Times,serif" font-size="14.00">[nav_msgs/msg/Odometry]</text>
</g>
<!-- /autodrive_bridge&#45;&gt;/autodrive/roboracer_1/odom -->
<g id="edge8" class="edge">
<title>/autodrive_bridge&#45;&gt;/autodrive/roboracer_1/odom</title>
<path fill="none" stroke="black" d="M757.57,-574.37C763.49,-573.14 769.37,-571.93 775.07,-570.75 813.4,-562.84 822.94,-560.64 861.32,-553 887.09,-547.87 914.73,-542.48 941.05,-537.4"/>
<polygon fill="black" stroke="black" points="941.6,-540.86 950.76,-535.53 940.28,-533.99 941.6,-540.86"/>
<text text-anchor="middle" x="809.2" y="-574.7" font-family="Times,serif" font-size="14.00">publishes</text>
</g>
<!-- /autodrive/roboracer_1/lidar -->
<g id="node9" class="node">
<title>/autodrive/roboracer_1/lidar</title>
<ellipse fill="lightgreen" stroke="black" cx="1065.15" cy="-592" rx="163.52" ry="30.05"/>
<text text-anchor="middle" x="1065.15" y="-595.95" font-family="Times,serif" font-size="14.00">/autodrive/roboracer_1/lidar</text>
<text text-anchor="middle" x="1065.15" y="-578.7" font-family="Times,serif" font-size="14.00">[sensor_msgs/msg/LaserScan]</text>
</g>
<!-- /autodrive_bridge&#45;&gt;/autodrive/roboracer_1/lidar -->
<g id="edge9" class="edge">
<title>/autodrive_bridge&#45;&gt;/autodrive/roboracer_1/lidar</title>
<path fill="none" stroke="black" d="M757.44,-592C796.31,-592 843.87,-592 889.83,-592"/>
<polygon fill="black" stroke="black" points="889.64,-595.5 899.64,-592 889.64,-588.5 889.64,-595.5"/>
<text text-anchor="middle" x="809.2" y="-595.95" font-family="Times,serif" font-size="14.00">publishes</text>
</g>
<!-- /autodrive/roboracer_1/front_camera -->
<g id="node10" class="node">
<title>/autodrive/roboracer_1/front_camera</title>
<ellipse fill="lightgreen" stroke="black" cx="1065.15" cy="-670" rx="196.4" ry="30.05"/>
<text text-anchor="middle" x="1065.15" y="-673.95" font-family="Times,serif" font-size="14.00">/autodrive/roboracer_1/front_camera</text>
<text text-anchor="middle" x="1065.15" y="-656.7" font-family="Times,serif" font-size="14.00">[sensor_msgs/msg/Image]</text>
</g>
<!-- /autodrive_bridge&#45;&gt;/autodrive/roboracer_1/front_camera -->
<g id="edge10" class="edge">
<title>/autodrive_bridge&#45;&gt;/autodrive/roboracer_1/front_camera</title>
<path fill="none" stroke="black" d="M757.49,-609.82C789.96,-616.55 827.34,-624.22 861.32,-631 883.23,-635.37 906.49,-639.92 929.15,-644.31"/>
<polygon fill="black" stroke="black" points="928.24,-647.7 938.72,-646.16 929.57,-640.83 928.24,-647.7"/>
<text text-anchor="middle" x="809.2" y="-630.84" font-family="Times,serif" font-size="14.00">publishes</text>
</g>
<!-- /autodrive/roboracer_1/lap_count -->
<g id="node11" class="node">
<title>/autodrive/roboracer_1/lap_count</title>
<ellipse fill="lightgreen" stroke="black" cx="1065.15" cy="-748" rx="177.84" ry="30.05"/>
<text text-anchor="middle" x="1065.15" y="-751.95" font-family="Times,serif" font-size="14.00">/autodrive/roboracer_1/lap_count</text>
<text text-anchor="middle" x="1065.15" y="-734.7" font-family="Times,serif" font-size="14.00">[std_msgs/msg/Int32]</text>
</g>
<!-- /autodrive_bridge&#45;&gt;/autodrive/roboracer_1/lap_count -->
<g id="edge11" class="edge">
<title>/autodrive_bridge&#45;&gt;/autodrive/roboracer_1/lap_count</title>
<path fill="none" stroke="black" d="M700.15,-613.73C735.51,-640.35 799.52,-684.87 861.32,-709 878.7,-715.79 897.4,-721.43 916.16,-726.1"/>
<polygon fill="black" stroke="black" points="915.19,-729.47 925.73,-728.4 916.82,-722.66 915.19,-729.47"/>
<text text-anchor="middle" x="809.2" y="-703.53" font-family="Times,serif" font-size="14.00">publishes</text>
</g>
<!-- /autodrive/roboracer_1/lap_time -->
<g id="node12" class="node">
<title>/autodrive/roboracer_1/lap_time</title>
<ellipse fill="lightgreen" stroke="black" cx="1065.15" cy="-826" rx="172.53" ry="30.05"/>
<text text-anchor="middle" x="1065.15" y="-829.95" font-family="Times,serif" font-size="14.00">/autodrive/roboracer_1/lap_time</text>
<text text-anchor="middle" x="1065.15" y="-812.7" font-family="Times,serif" font-size="14.00">[std_msgs/msg/Float32]</text>
</g>
<!-- /autodrive_bridge&#45;&gt;/autodrive/roboracer_1/lap_time -->
<g id="edge12" class="edge">
<title>/autodrive_bridge&#45;&gt;/autodrive/roboracer_1/lap_time</title>
<path fill="none" stroke="black" d="M685.23,-613.53C711.77,-655.94 777.46,-749.39 861.32,-787 877.93,-794.45 895.92,-800.47 914.1,-805.35"/>
<polygon fill="black" stroke="black" points="913.1,-808.71 923.66,-807.79 914.83,-801.93 913.1,-808.71"/>
<text text-anchor="middle" x="809.2" y="-781.08" font-family="Times,serif" font-size="14.00">publishes</text>
</g>
<!-- /autodrive/roboracer_1/last_lap_time -->
<g id="node13" class="node">
<title>/autodrive/roboracer_1/last_lap_time</title>
<ellipse fill="lightgreen" stroke="black" cx="1065.15" cy="-904" rx="195.87" ry="30.05"/>
<text text-anchor="middle" x="1065.15" y="-907.95" font-family="Times,serif" font-size="14.00">/autodrive/roboracer_1/last_lap_time</text>
<text text-anchor="middle" x="1065.15" y="-890.7" font-family="Times,serif" font-size="14.00">[std_msgs/msg/Float32]</text>
</g>
<!-- /autodrive_bridge&#45;&gt;/autodrive/roboracer_1/last_lap_time -->
<g id="edge13" class="edge">
<title>/autodrive_bridge&#45;&gt;/autodrive/roboracer_1/last_lap_time</title>
<path fill="none" stroke="black" d="M679.58,-613.68C693.39,-653.35 726.72,-738.96 775.07,-798 805.83,-835.55 817.11,-844.98 861.32,-865 875.39,-871.37 890.46,-876.7 905.81,-881.16"/>
<polygon fill="black" stroke="black" points="904.43,-884.41 915,-883.71 906.3,-877.67 904.43,-884.41"/>
<text text-anchor="middle" x="809.2" y="-859.99" font-family="Times,serif" font-size="14.00">publishes</text>
</g>
<!-- /autodrive/roboracer_1/best_lap_time -->
<g id="node14" class="node">
<title>/autodrive/roboracer_1/best_lap_time</title>
<ellipse fill="lightgreen" stroke="black" cx="1065.15" cy="-982" rx="199.05" ry="30.05"/>
<text text-anchor="middle" x="1065.15" y="-985.95" font-family="Times,serif" font-size="14.00">/autodrive/roboracer_1/best_lap_time</text>
<text text-anchor="middle" x="1065.15" y="-968.7" font-family="Times,serif" font-size="14.00">[std_msgs/msg/Float32]</text>
</g>
<!-- /autodrive_bridge&#45;&gt;/autodrive/roboracer_1/best_lap_time -->
<g id="edge14" class="edge">
<title>/autodrive_bridge&#45;&gt;/autodrive/roboracer_1/best_lap_time</title>
<path fill="none" stroke="black" d="M675.91,-613.62C684.85,-664.02 712.5,-791.48 775.07,-877 805.55,-918.65 854.22,-943.82 903,-959.01"/>
<polygon fill="black" stroke="black" points="901.7,-962.28 912.28,-961.77 903.69,-955.57 901.7,-962.28"/>
<text text-anchor="middle" x="809.2" y="-938.26" font-family="Times,serif" font-size="14.00">publishes</text>
</g>
<!-- /autodrive/roboracer_1/collision_count -->
<g id="node15" class="node">
<title>/autodrive/roboracer_1/collision_count</title>
<ellipse fill="lightgreen" stroke="black" cx="1065.15" cy="-1060" rx="203.82" ry="30.05"/>
<text text-anchor="middle" x="1065.15" y="-1063.95" font-family="Times,serif" font-size="14.00">/autodrive/roboracer_1/collision_count</text>
<text text-anchor="middle" x="1065.15" y="-1046.7" font-family="Times,serif" font-size="14.00">[std_msgs/msg/Int32]</text>
</g>
<!-- /autodrive_bridge&#45;&gt;/autodrive/roboracer_1/collision_count -->
<g id="edge15" class="edge">
<title>/autodrive_bridge&#45;&gt;/autodrive/roboracer_1/collision_count</title>
<path fill="none" stroke="black" d="M673.79,-613.7C678.41,-673.43 697.97,-843.28 775.07,-956 803.28,-997.23 849.54,-1022.22 896.87,-1037.32"/>
<polygon fill="black" stroke="black" points="895.59,-1040.59 906.17,-1040.14 897.62,-1033.89 895.59,-1040.59"/>
<text text-anchor="middle" x="809.2" y="-1018.09" font-family="Times,serif" font-size="14.00">publishes</text>
</g>
<!-- /autodrive_bridge__tf_broadcaster -->
<g id="node16" class="node">
<title>/autodrive_bridge__tf_broadcaster</title>
<ellipse fill="lightsalmon" stroke="black" cx="1065.15" cy="-1122" rx="61.7" ry="13.61"/>
<text text-anchor="middle" x="1065.15" y="-1119.08" font-family="Times,serif" font-size="9.00">TF Broadcaster</text>
</g>
<!-- /autodrive_bridge&#45;&gt;/autodrive_bridge__tf_broadcaster -->
<g id="edge1" class="edge">
<title>/autodrive_bridge&#45;&gt;/autodrive_bridge__tf_broadcaster</title>
<path fill="none" stroke="grey" stroke-width="0.5" d="M672.36,-613.39C673.07,-681.07 682.92,-894.35 775.07,-1035 823.76,-1109.31 934.7,-1123.35 1004.11,-1124.36"/>
</g>
<!-- /autodrive/roboracer_1/throttle_command -->
<g id="node17" class="node">
<title>/autodrive/roboracer_1/throttle_command</title>
<ellipse fill="lightgreen" stroke="black" cx="225.04" cy="-670" rx="221.85" ry="30.05"/>
<text text-anchor="middle" x="225.04" y="-673.95" font-family="Times,serif" font-size="14.00">/autodrive/roboracer_1/throttle_command</text>
<text text-anchor="middle" x="225.04" y="-656.7" font-family="Times,serif" font-size="14.00">[std_msgs/msg/Float32]</text>
</g>
<!-- /autodrive/roboracer_1/throttle_command&#45;&gt;/autodrive_bridge -->
<g id="edge16" class="edge">
<title>/autodrive/roboracer_1/throttle_command&#45;&gt;/autodrive_bridge</title>
<path fill="none" stroke="black" d="M370.93,-647.04C431.82,-637.08 503.35,-624.97 567.82,-613 569.97,-612.6 572.14,-612.19 574.33,-611.78"/>
<polygon fill="black" stroke="black" points="574.73,-615.27 583.89,-609.94 573.41,-608.39 574.73,-615.27"/>
<text text-anchor="middle" x="517.95" y="-633.67" font-family="Times,serif" font-size="14.00">subscribed by</text>
</g>
<!-- /autodrive/roboracer_1/steering_command -->
<g id="node18" class="node">
<title>/autodrive/roboracer_1/steering_command</title>
<ellipse fill="lightgreen" stroke="black" cx="225.04" cy="-592" rx="225.04" ry="30.05"/>
<text text-anchor="middle" x="225.04" y="-595.95" font-family="Times,serif" font-size="14.00">/autodrive/roboracer_1/steering_command</text>
<text text-anchor="middle" x="225.04" y="-578.7" font-family="Times,serif" font-size="14.00">[std_msgs/msg/Float32]</text>
</g>
<!-- /autodrive/roboracer_1/steering_command&#45;&gt;/autodrive_bridge -->
<g id="edge17" class="edge">
<title>/autodrive/roboracer_1/steering_command&#45;&gt;/autodrive_bridge</title>
<path fill="none" stroke="black" d="M450.52,-592C494.17,-592 537.7,-592 574.38,-592"/>
<polygon fill="black" stroke="black" points="574.02,-595.5 584.02,-592 574.02,-588.5 574.02,-595.5"/>
<text text-anchor="middle" x="517.95" y="-595.95" font-family="Times,serif" font-size="14.00">subscribed by</text>
</g>
<!-- /autodrive/reset_command -->
<g id="node19" class="node">
<title>/autodrive/reset_command</title>
<ellipse fill="lightgreen" stroke="black" cx="225.04" cy="-514" rx="145.49" ry="30.05"/>
<text text-anchor="middle" x="225.04" y="-517.95" font-family="Times,serif" font-size="14.00">/autodrive/reset_command</text>
<text text-anchor="middle" x="225.04" y="-500.7" font-family="Times,serif" font-size="14.00">[std_msgs/msg/Bool]</text>
</g>
<!-- /autodrive/reset_command&#45;&gt;/autodrive_bridge -->
<g id="edge18" class="edge">
<title>/autodrive/reset_command&#45;&gt;/autodrive_bridge</title>
<path fill="none" stroke="black" d="M342.12,-532.1C408.36,-542.73 492.87,-556.77 567.82,-570.75 569.97,-571.15 572.14,-571.56 574.33,-571.98"/>
<polygon fill="black" stroke="black" points="573.41,-575.36 583.89,-573.83 574.74,-568.49 573.41,-575.36"/>
<text text-anchor="middle" x="517.95" y="-574.7" font-family="Times,serif" font-size="14.00">subscribed by</text>
</g>
</g>
</svg>
